<?xml version="1.0" encoding="UTF-8" standalone="no"?>
<svg
   xmlns:dc="http://purl.org/dc/elements/1.1/"
   xmlns:cc="http://creativecommons.org/ns#"
   xmlns:rdf="http://www.w3.org/1999/02/22-rdf-syntax-ns#"
   xmlns:svg="http://www.w3.org/2000/svg"
   xmlns="http://www.w3.org/2000/svg"
   xmlns:sodipodi="http://sodipodi.sourceforge.net/DTD/sodipodi-0.dtd"
   xmlns:inkscape="http://www.inkscape.org/namespaces/inkscape"
   version="1.0"
   x="0px"
   y="0px"
   viewBox="0 0 960 286"
   enable-background="new 0 0 100 100"
   xml:space="preserve"
   id="svg4152"
   sodipodi:docname="landscape.svg"
   inkscape:version="0.92.1 r15371"
   width="960"
   height="286"><metadata
     id="metadata4158"><rdf:RDF><cc:Work
         rdf:about=""><dc:format>image/svg+xml</dc:format><dc:type
           rdf:resource="http://purl.org/dc/dcmitype/StillImage" /><dc:title></dc:title></cc:Work></rdf:RDF></metadata><defs
     id="defs4156" /><sodipodi:namedview
     pagecolor="#ffffff"
     bordercolor="#666666"
     borderopacity="1"
     objecttolerance="10"
     gridtolerance="10"
     guidetolerance="10"
     inkscape:pageopacity="0"
     inkscape:pageshadow="2"
     inkscape:window-width="1366"
     inkscape:window-height="705"
     id="namedview4154"
     showgrid="false"
     inkscape:zoom="0.944"
     inkscape:cx="461.69692"
     inkscape:cy="155.77327"
     inkscape:window-x="-8"
     inkscape:window-y="-8"
     inkscape:window-maximized="1"
     inkscape:current-layer="layer2"
     height="286px" /><path
     d="m 557.7595,131.95583 c -19.34689,0 -38.24206,1.46937 -56.52244,4.24548 l 2.47353,-16.73413 c -3.97559,0.99807 -8.59698,3.23763 -8.59698,3.23763 l 2.58511,14.05548 c -20.9761,3.39551 -41.11975,8.51653 -60.1461,15.18492 56.60371,6.97044 107.70806,26.50662 148.24725,54.76389 85.79773,8.45084 166.38711,29.5918 238.48407,60.8592 C 780.65526,187.91618 677.75764,131.95583 557.7595,131.95583 Z"
     id="path4138"
     inkscape:connector-curvature="0"
     style="fill:#5aa02c;stroke-width:6.39797449" /><ellipse
     cx="497.72632"
     cy="94.908844"
     id="circle4140"
     rx="29.885448"
     ry="22.853394"
     style="fill:#5aa02c;stroke-width:6.39797449" /><path
     d="m 416.14244,131.6635 c -6.81779,3.85093 -13.63564,7.34122 -13.63564,7.34122 l 4.73027,28.18235 c -2.05561,0.0112 -4.10999,0.0224 -6.15513,0.0666 -13.85908,0.28478 -27.46362,1.34108 -40.76891,3.06878 l 2.90269,-17.29529 c 0,0 -5.43183,-2.78097 -10.86374,-5.84936 l 3.87271,23.6931 c -83.26596,11.75814 -154.01322,50.81025 -195.76509,104.58885 51.12513,-23.81076 106.856,-42.39867 165.91443,-54.85515 55.65705,-11.73921 114.26355,-18.04085 174.80194,-18.04085 23.7684,0 47.23244,0.99107 70.34712,2.8762 -45.95807,-23.96641 -101.42861,-38.04304 -161.18723,-38.25246 z"
     id="path4142"
     inkscape:connector-curvature="0"
     style="fill:#5aa02c;stroke-width:6.39797449" /><path
     d="m 408.80688,127.91446 c 25.20797,-11.15591 42.18054,-31.985166 42.18054,-55.858985 0,-23.873813 -16.97257,-44.703528 -42.18054,-55.8592 -25.20856,11.155672 -42.18077,31.985387 -42.18077,55.8592 0,23.873819 16.97221,44.703075 42.18077,55.858985 z"
     id="path4144"
     inkscape:connector-curvature="0"
     style="fill:#5aa02c;stroke-width:6.39797449" /><path
     d="m 358.19667,144.19097 c 12.24392,-5.41861 22.02615,-13.71162 27.81555,-23.66266 -19.01918,-11.82493 -31.20493,-29.82499 -31.20493,-50.031275 0,-5.0926 0.81518,-10.033966 2.27496,-14.785273 -19.45905,9.004059 -32.49255,25.312527 -32.49255,43.974514 0,19.021304 13.52239,35.616554 33.60697,44.504694 z"
     id="path4146"
     inkscape:connector-curvature="0"
     style="fill:#5aa02c;stroke-width:6.39797449" /><g
     inkscape:groupmode="layer"
     id="layer2"
     inkscape:label="Layer 2"
     style="display:inline;opacity:0.525;"><rect
       style="fill:#88aa00"
       id="rect4239"
       width="959.74579"
       height="286.01697"
       x="0"
       y="-0.016949002" /></g><g
     inkscape:groupmode="layer"
     id="layer1"
     inkscape:label="Layer 1"
     style="display:inline;" /></svg>