<?xml version="1.0" encoding="UTF-8" standalone="no"?>
<svg
   xmlns:dc="http://purl.org/dc/elements/1.1/"
   xmlns:cc="http://creativecommons.org/ns#"
   xmlns:rdf="http://www.w3.org/1999/02/22-rdf-syntax-ns#"
   xmlns:svg="http://www.w3.org/2000/svg"
   xmlns="http://www.w3.org/2000/svg"
   xmlns:sodipodi="http://sodipodi.sourceforge.net/DTD/sodipodi-0.dtd"
   xmlns:inkscape="http://www.inkscape.org/namespaces/inkscape"
   version="1.0"
   x="0px"
   y="0px"
   viewBox="0 0 100 125"
   enable-background="new 0 0 100 100"
   xml:space="preserve"
   id="svg4152"
   sodipodi:docname="landscape.svg"
   inkscape:version="0.92.1 r15371"><metadata
     id="metadata4158"><rdf:RDF><cc:Work
         rdf:about=""><dc:format>image/svg+xml</dc:format><dc:type
           rdf:resource="http://purl.org/dc/dcmitype/StillImage" /></cc:Work></rdf:RDF></metadata><defs
     id="defs4156" /><sodipodi:namedview
     pagecolor="#ffffff"
     bordercolor="#666666"
     borderopacity="1"
     objecttolerance="10"
     gridtolerance="10"
     guidetolerance="10"
     inkscape:pageopacity="0"
     inkscape:pageshadow="2"
     inkscape:window-width="640"
     inkscape:window-height="480"
     id="namedview4154"
     showgrid="false"
     inkscape:zoom="1.888"
     inkscape:cx="50"
     inkscape:cy="62.5"
     inkscape:window-x="240"
     inkscape:window-y="87"
     inkscape:window-maximized="0"
     inkscape:current-layer="svg4152" /><path
     d="M59.5716095,43.7892151c-2.6443214,0-5.226902,0.2626305-7.7254486,0.7588196l0.3380814-2.9909897  c-0.5433846,0.1783981-1.1750259,0.5786858-1.1750259,0.5786858l0.3533287,2.5122185  c-2.8670006,0.6068954-5.6202202,1.5222054-8.2207298,2.7140923c7.736557,1.2458649,14.7214661,4.73769,20.2623367,9.7882805  C75.130928,58.6607895,86.1458435,62.4394341,96,68.0280533C90.0368576,53.7913513,75.9728775,43.7892151,59.5716095,43.7892151z"
     id="path4138" /><circle
     cx="51.3663177"
     cy="37.1675797"
     r="4.0847244"
     id="circle4140" /><path
     d="M40.2154808,43.7369728c-0.9318542,0.6882935-1.8637123,1.3121338-1.8637123,1.3121338l0.6465302,5.0371971  c-0.2809525,0.0018883-0.5617447,0.0044098-0.8412781,0.011898c-1.894249,0.0509033-3.7537079,0.2397003-5.5722694,0.5485077  l0.3967438-3.0912971c0,0-0.7424278-0.4970551-1.4848576-1.0454826l0.5293217,4.2348022  C20.6452236,52.8463364,10.9755325,59.8263588,5.2689133,69.43853c6.9877453-4.2558441,14.6050034-7.5781746,22.6770782-9.8045921  c7.6071701-2.098217,15.6174698-3.2245445,23.891819-3.2245445c3.2486534,0,6.4557037,0.1771355,9.6150055,0.5140724  c-6.2815247-4.2836571-13.863205-6.7996559-22.0309792-6.8370857L40.2154808,43.7369728z"
     id="path4142" /><path
     d="M39.2128639,43.0668793c3.4454117-1.9939651,5.7652054-5.7169037,5.7652054-9.9840126  s-2.3197937-7.9901257-5.7652054-9.9840527c-3.4454918,1.993927-5.7652435,5.7169418-5.7652435,9.9840527  S35.7673721,41.0729141,39.2128639,43.0668793z"
     id="path4144" /><path
     d="M32.2954865,45.976078c1.6734962-0.9684982,3.0105286-2.4507561,3.8018112-4.2293701  c-2.5995216-2.1135406-4.2650623-5.3307953-4.2650623-8.9423904c0-0.9102268,0.1114197-1.7934265,0.3109341-2.642664  c-2.6596451,1.6093559-4.4410553,4.5242672-4.4410553,7.8598347C27.7021141,41.4212761,29.5503445,44.3874435,32.2954865,45.976078z  "
     id="path4146" /></svg>