<?xml version="1.0" encoding="UTF-8" standalone="no"?>
<svg
   xmlns:dc="http://purl.org/dc/elements/1.1/"
   xmlns:cc="http://creativecommons.org/ns#"
   xmlns:rdf="http://www.w3.org/1999/02/22-rdf-syntax-ns#"
   xmlns:svg="http://www.w3.org/2000/svg"
   xmlns="http://www.w3.org/2000/svg"
   xmlns:sodipodi="http://sodipodi.sourceforge.net/DTD/sodipodi-0.dtd"
   xmlns:inkscape="http://www.inkscape.org/namespaces/inkscape"
   version="1.1"
   x="0px"
   y="0px"
   viewBox="0 0 78.42186 99.968971"
   enable-background="new 0 0 145 145"
   xml:space="preserve"
   id="svg4515"
   sodipodi:docname="man1.svg"
   width="78.42186"
   height="99.968971"
   inkscape:version="0.92.1 r15371"><metadata
     id="metadata4521"><rdf:RDF><cc:Work
         rdf:about=""><dc:format>image/svg+xml</dc:format><dc:type
           rdf:resource="http://purl.org/dc/dcmitype/StillImage" /><dc:title></dc:title></cc:Work></rdf:RDF></metadata><defs
     id="defs4519" /><sodipodi:namedview
     pagecolor="#ffffff"
     bordercolor="#666666"
     borderopacity="1"
     objecttolerance="10"
     gridtolerance="10"
     guidetolerance="10"
     inkscape:pageopacity="0"
     inkscape:pageshadow="2"
     inkscape:window-width="640"
     inkscape:window-height="480"
     id="namedview4517"
     showgrid="false"
     fit-margin-top="0"
     fit-margin-left="0"
     fit-margin-right="0"
     fit-margin-bottom="0"
     inkscape:zoom="1.302069"
     inkscape:cx="38.869863"
     inkscape:cy="31.675"
     inkscape:window-x="0"
     inkscape:window-y="0"
     inkscape:window-maximized="0"
     inkscape:current-layer="svg4515" /><path
     d="m 76.069863,50.568968 c 1.6,-11.8 -0.2,-22.1 -4.2,-30.2 -0.6,-1.3 -1.3,-2.6 -2.1,-3.8 -7,-11.0999996 -18.5,-17.29999961 -30.6,-16.49999961 -21.4,-1.39999999 -41.1999996,19.19999961 -36.7999996,50.49999961 -2.79999998,0.8 -3.09999998,8.1 -1,15.5 2.1,7.4 5,11.2 6.9,10.5 0.4,-0.1 0.8,-0.5 1.1,-1.1 7.3999996,16.6 18.2999996,24.5 29.7999996,24.5 11.6,0 22.4,-7.9 29.8,-24.5 0.3,0.6 0.7,1 1.1,1.1 1.9,0.6 4.8,-3.2 6.9,-10.5 2.2,-7.4 1.9,-14.7 -0.9,-15.5 z m -36.8,44.5 c -13.3,0 -25.7,-14.5 -30.6999996,-39.2 -0.1,-0.4 -0.2,-0.9 -0.2,-1.3 2.1999996,-4.9 3.7999996,-11.1 4.5999996,-17.7 0.3,-2.3 0.5,-4.6 0.6,-6.8 3.3,2.7 8.9,6.1 16.7,6.7 13.9,1.1 21.6,-1.7 26.6,0.6 5,2.2 -1.7,-6.7 -1.7,-6.7 0,0 11.6,7.8 13.3,17.2 0.6,3.2 1,6.1 1.3,8.6 -5.1,24.3 -17.3,38.6 -30.5,38.6 z"
     id="path4509"
     inkscape:connector-curvature="0" /></svg>