<?xml version="1.0" encoding="UTF-8" standalone="no"?>
<svg
   xmlns:dc="http://purl.org/dc/elements/1.1/"
   xmlns:cc="http://creativecommons.org/ns#"
   xmlns:rdf="http://www.w3.org/1999/02/22-rdf-syntax-ns#"
   xmlns:svg="http://www.w3.org/2000/svg"
   xmlns="http://www.w3.org/2000/svg"
   xmlns:sodipodi="http://sodipodi.sourceforge.net/DTD/sodipodi-0.dtd"
   xmlns:inkscape="http://www.inkscape.org/namespaces/inkscape"
   version="1.1"
   x="0px"
   y="0px"
   viewBox="0 0 78.439728 99.989479"
   enable-background="new 0 0 145 145"
   xml:space="preserve"
   id="svg4529"
   sodipodi:docname="man2.svg"
   width="78.439728"
   height="99.989479"
   inkscape:version="0.92.1 r15371"><metadata
     id="metadata4535"><rdf:RDF><cc:Work
         rdf:about=""><dc:format>image/svg+xml</dc:format><dc:type
           rdf:resource="http://purl.org/dc/dcmitype/StillImage" /><dc:title></dc:title></cc:Work></rdf:RDF></metadata><defs
     id="defs4533" /><sodipodi:namedview
     pagecolor="#ffffff"
     bordercolor="#666666"
     borderopacity="1"
     objecttolerance="10"
     gridtolerance="10"
     guidetolerance="10"
     inkscape:pageopacity="0"
     inkscape:pageshadow="2"
     inkscape:window-width="640"
     inkscape:window-height="480"
     id="namedview4531"
     showgrid="false"
     fit-margin-top="0"
     fit-margin-left="0"
     fit-margin-right="0"
     fit-margin-bottom="0"
     inkscape:zoom="1.302069"
     inkscape:cx="38.669863"
     inkscape:cy="31.597588"
     inkscape:window-x="0"
     inkscape:window-y="0"
     inkscape:window-maximized="0"
     inkscape:current-layer="svg4529" /><path
     d="m 71.569863,76.366889 c 1.8,-1 3.9,-4.5 5.5,-10.3 2.1,-7.3 1.8,-14.6 -1,-15.5 4.3,-31.2 -15.5,-51.8999999 -36.9,-50.49999987 -21.3,-1.30000003 -41.0999996,19.29999987 -36.7999996,50.49999987 -2.79999998,0.8 -3.09999998,8.1 -1,15.5 1.8,6.1 4,9.8 5.9,10.4 3.8999996,16.2 9.8999996,24.000001 31.9999996,23.5 23.4,-0.5 28.9,-7.8 32.3,-23.6 z m -39.2,-4.5 v 0 h 13.7 v 0 0 0 c 0,0 0,0.1 0,0.1 0.3,0.9 2.5,7.4 1.9,9.1 -0.6,1.8 -1.8,1.9 -3.4,-1.3 -0.6,-1.2 -1.1,-2.1 -1.6,-2.8 -0.4,0.1 -0.9,0.2 -1.3,0.2 h -5 c -0.5,0 -0.9,-0.1 -1.4,-0.2 -0.5,0.7 -1,1.7 -1.6,2.8 -1.6,3.2 -2.8,3.1 -3.4,1.3 -0.4,-1.8 2.1,-9.2 2.1,-9.2 z m 6.9,-66.0999999 c 18.6,-1.2 35.8,17.8999999 30.7,46.2999999 -1.6,8.6 -3.9,15.7 -6.7,21.4 -2.5,3.2 -5.5,3.6 -10.2,-6.2 -1.4,-2.3 -7.5,-4.2 -13.2,-4.2 -0.1,0 -0.1,0 -0.2,0 -0.3,0 -0.5,0 -0.8,0 -0.1,0 -0.1,0 -0.2,0 -5.8,0 -11.8,2 -13.2,4.2 -4.7,9.9 -7.8,9.4 -10.3,6.2 -2.8,-5.8 -5.1,-12.9 -6.6999996,-21.4 -5,-28.5 12.1999996,-47.4999999 30.7999996,-46.2999999 z"
     id="path4523"
     inkscape:connector-curvature="0" /></svg>