<?xml version="1.0" encoding="UTF-8" standalone="no"?>
<svg
   xmlns:dc="http://purl.org/dc/elements/1.1/"
   xmlns:cc="http://creativecommons.org/ns#"
   xmlns:rdf="http://www.w3.org/1999/02/22-rdf-syntax-ns#"
   xmlns:svg="http://www.w3.org/2000/svg"
   xmlns="http://www.w3.org/2000/svg"
   xmlns:sodipodi="http://sodipodi.sourceforge.net/DTD/sodipodi-0.dtd"
   xmlns:inkscape="http://www.inkscape.org/namespaces/inkscape"
   version="1.1"
   x="0px"
   y="0px"
   viewBox="0 0 83.94503 100.1"
   enable-background="new 0 0 145 145"
   xml:space="preserve"
   id="svg4543"
   sodipodi:docname="man3.svg"
   width="83.94503"
   height="100.1"
   inkscape:version="0.92.1 r15371"><metadata
     id="metadata4549"><rdf:RDF><cc:Work
         rdf:about=""><dc:format>image/svg+xml</dc:format><dc:type
           rdf:resource="http://purl.org/dc/dcmitype/StillImage" /><dc:title></dc:title></cc:Work></rdf:RDF></metadata><defs
     id="defs4547" /><sodipodi:namedview
     pagecolor="#ffffff"
     bordercolor="#666666"
     borderopacity="1"
     objecttolerance="10"
     gridtolerance="10"
     guidetolerance="10"
     inkscape:pageopacity="0"
     inkscape:pageshadow="2"
     inkscape:window-width="640"
     inkscape:window-height="480"
     id="namedview4545"
     showgrid="false"
     fit-margin-top="0"
     fit-margin-left="0"
     fit-margin-right="0"
     fit-margin-bottom="0"
     inkscape:zoom="1.302069"
     inkscape:cx="37.4"
     inkscape:cy="32.075"
     inkscape:window-x="0"
     inkscape:window-y="0"
     inkscape:window-maximized="0"
     inkscape:current-layer="svg4543" /><path
     d="m 59.1,0 2.5,7.5 C 33.3,-6.3 0,16.3 0,16.3 l 10.1,8.2 -9.4,8.8 c 0,0 3.7,0.9 8.7,2.1 l -4.6,4.2 6,1.9 -5,4.4 4.4,4.2 h 0.2 c -2.4,4.3 -4,12.4 6.6,23 0.1,0.4 0.3,0.8 0.4,1.2 l -0.3,-0.4 c 0,0 12.8,26.2 29.4,26.2 16.6,0 26.7,-20.6 26.7,-20.6 1.1,-2.2 2,-4.6 2.9,-7 9.1,-9.4 8.5,-16.8 6.6,-21.2 C 90.5,19.5 59.1,0 59.1,0 Z M 46.4,94.5 c -12.8,0 -22,-14.1 -26.1,-31.2 1.5,1.3 3.5,2.1 6.1,2.1 0.5,0 0.9,0 1.4,-0.1 9.1,-1 13,-6.9 14.6,-10.8 1.5,-0.3 3.9,-0.4 7.4,0.3 1.7,4 5.5,9.6 14.5,10.6 0.5,0 1,0.1 1.4,0.1 3.1,0 5.4,-1.2 6.9,-2.9 C 68.7,80 59.3,94.5 46.4,94.5 Z M 74.5,49.2 c -0.9,-2.2 -2.3,-3.9 -4.3,-4 -0.8,-0.1 -1.8,-0.1 -2.8,-0.1 -0.7,0 -17.3,0.1 -18.6,5.3 -2.2,-0.3 -4,-0.3 -5.4,-0.2 -1.7,-5.1 -17.9,-5.1 -18.6,-5.1 -1,0 -2,0 -2.8,0.1 -1.6,0.1 -2.9,1.3 -3.8,2.9 -0.1,-1.5 -0.1,-2.9 -0.1,-4.4 l 2.7,-2.8 -2.3,-4.5 c 0,0 0,-0.1 0,-0.1 2.3,0.6 4.5,1.1 6.5,1.6 14.5,3.7 28.2,-6.1 28.2,-6.1 l -1.3,6.1 16.1,-5.4 -0.7,8.7 7.3,-1.5 c 0.1,1.2 0.1,2.4 0.1,3.7 0,2 0,3.9 -0.2,5.8 z"
     id="path4537"
     inkscape:connector-curvature="0"
     style="fill:#000000" /></svg>