<?xml version="1.0" encoding="UTF-8" standalone="no"?>
<svg
   xmlns:dc="http://purl.org/dc/elements/1.1/"
   xmlns:cc="http://creativecommons.org/ns#"
   xmlns:rdf="http://www.w3.org/1999/02/22-rdf-syntax-ns#"
   xmlns:svg="http://www.w3.org/2000/svg"
   xmlns="http://www.w3.org/2000/svg"
   xmlns:sodipodi="http://sodipodi.sourceforge.net/DTD/sodipodi-0.dtd"
   xmlns:inkscape="http://www.inkscape.org/namespaces/inkscape"
   version="1.1"
   x="0px"
   y="0px"
   viewBox="0 0 100 125"
   style="enable-background:new 0 0 100 100;"
   xml:space="preserve"
   id="svg4180"
   sodipodi:docname="selfie.svg"
   inkscape:version="0.92.1 r15371"><metadata
     id="metadata4186"><rdf:RDF><cc:Work
         rdf:about=""><dc:format>image/svg+xml</dc:format><dc:type
           rdf:resource="http://purl.org/dc/dcmitype/StillImage" /></cc:Work></rdf:RDF></metadata><defs
     id="defs4184" /><sodipodi:namedview
     pagecolor="#ffffff"
     bordercolor="#666666"
     borderopacity="1"
     objecttolerance="10"
     gridtolerance="10"
     guidetolerance="10"
     inkscape:pageopacity="0"
     inkscape:pageshadow="2"
     inkscape:window-width="1366"
     inkscape:window-height="705"
     id="namedview4182"
     showgrid="false"
     inkscape:snap-to-guides="false"
     inkscape:snap-grids="false"
     inkscape:zoom="5.3400704"
     inkscape:cx="29.189726"
     inkscape:cy="77.439097"
     inkscape:window-x="-8"
     inkscape:window-y="-8"
     inkscape:window-maximized="1"
     inkscape:current-layer="svg4180" /><g
     id="g4174"><path
       d="M97.7,54.7c0-3.5-2.5-6.5-5.9-7.1v14.3C95.2,61.2,97.7,58.2,97.7,54.7z"
       id="path4160" /><path
       d="M74.7,49.4c4.4,0,8-3.6,8-8c0-4.4-3.6-8-8-8s-8,3.6-8,8C66.7,45.8,70.3,49.4,74.7,49.4z M71.5,37.9c0.7,0,1.2,0.6,1.2,1.2   s-0.6,1.2-1.2,1.2s-1.2-0.6-1.2-1.2S70.8,37.9,71.5,37.9z M77.2,44.4c0.2-0.1,0.5-0.3,0.7-0.4c0.2-0.2,0.5-0.1,0.7,0.1   c0.2,0.2,0.1,0.5-0.1,0.7C77.3,45.6,76,46,74.6,46c-1.4,0-2.7-0.4-3.8-1.2c-0.2-0.2-0.3-0.5-0.1-0.7c0.2-0.2,0.5-0.3,0.7-0.1   c0.2,0.2,0.5,0.3,0.7,0.4H77.2z M76.6,39.1c0-0.7,0.6-1.2,1.2-1.2c0.7,0,1.2,0.6,1.2,1.2s-0.6,1.2-1.2,1.2   C77.2,40.4,76.6,39.8,76.6,39.1z"
       id="path4162" /><path
       d="M61.6,64.5h26.2v2.3c0,1.7-1.3,3-3,3H66.1c0.5,0.7,0.9,1.3,1.3,2h17.4c2.8,0,5-2.2,5-5v-2.3v-2V27.4v-2v-0.9   c0-3.1-2.2-5.6-5-5.6H64.5c-2.8,0-5,2.5-5,5.6v0.9v2v35.2v0.1C60.2,63.3,60.9,63.9,61.6,64.5z M61.5,24.5c0-2,1.3-3.6,3-3.6h20.3   c1.7,0,3,1.6,3,3.6v0.9H61.5V24.5z M87.8,27.4V62c-0.8-6.6-6.4-11.7-13.2-11.7S62.3,55.4,61.5,62V27.4H87.8z"
       id="path4164" /><circle
       cx="74.7"
       cy="23.1"
       r="1.2"
       id="circle4166" /><path
       d="M7.3,89.7h57.8c1.5,0,2.9-0.7,3.9-1.8c1-1.2,1.3-2.7,1-4.2c-3.3-15.9-17.5-27.5-33.8-27.5S5.7,67.8,2.4,83.7   c-0.3,1.5,0.1,3,1,4.2C4.4,89,5.8,89.7,7.3,89.7z"
       id="path4168" /><path
       d="M13.1,32.2c0,12.1,9.9,22,22,22s22-9.9,22-22s-9.9-22-22-22S13.1,20.1,13.1,32.2z"
       id="path4170" /><path
       d="M77.2,44.4h-5.1C73.7,45.2,75.6,45.2,77.2,44.4z"
       id="path4172" /></g></svg>