<?xml version="1.0" encoding="UTF-8" standalone="no"?>
<svg
   xmlns:dc="http://purl.org/dc/elements/1.1/"
   xmlns:cc="http://creativecommons.org/ns#"
   xmlns:rdf="http://www.w3.org/1999/02/22-rdf-syntax-ns#"
   xmlns:svg="http://www.w3.org/2000/svg"
   xmlns="http://www.w3.org/2000/svg"
   xmlns:sodipodi="http://sodipodi.sourceforge.net/DTD/sodipodi-0.dtd"
   xmlns:inkscape="http://www.inkscape.org/namespaces/inkscape"
   version="1.1"
   x="0px"
   y="0px"
   viewBox="0 0 150 150"
   xml:space="preserve"
   id="svg4180"
   sodipodi:docname="selfie.svg"
   inkscape:version="0.92.1 r15371"
   width="150"
   height="150"><metadata
     id="metadata4186"><rdf:RDF><cc:Work
         rdf:about=""><dc:format>image/svg+xml</dc:format><dc:type
           rdf:resource="http://purl.org/dc/dcmitype/StillImage" /><dc:title></dc:title></cc:Work></rdf:RDF></metadata><defs
     id="defs4184" /><sodipodi:namedview
     pagecolor="#ffffff"
     bordercolor="#666666"
     borderopacity="1"
     objecttolerance="10"
     gridtolerance="10"
     guidetolerance="10"
     inkscape:pageopacity="1"
     inkscape:pageshadow="2"
     inkscape:window-width="1366"
     inkscape:window-height="705"
     id="namedview4182"
     showgrid="false"
     inkscape:snap-to-guides="false"
     inkscape:snap-grids="false"
     inkscape:zoom="1.3350176"
     inkscape:cx="-51.76243"
     inkscape:cy="7.8719696"
     inkscape:window-x="-8"
     inkscape:window-y="-8"
     inkscape:window-maximized="1"
     inkscape:current-layer="layer4"
     fit-margin-top="0"
     inkscape:pagecheckerboard="true" /><g
     inkscape:groupmode="layer"
     id="layer4"
     inkscape:label="Layer 1"><rect
       style="fill:#ffffff"
       id="rect4327"
       width="149.81076"
       height="149.81076"
       x="0.74905378"
       y="1.6873485" /></g><g
     id="g4174"
     transform="translate(0,25)"
     style="display:inline"><path
       d="m 147.75297,56.55548 c 0,-5.062333 -3.77004,-9.401477 -8.89729,-10.269305 v 20.683248 c 5.12725,-1.012466 8.89729,-5.351609 8.89729,-10.413943 z"
       id="path4160"
       style="fill:#806600;stroke-width:1.47687709"
       inkscape:connector-curvature="0" /><path
       d="m 113.06859,48.889661 c 6.63528,0 12.06414,-5.206972 12.06414,-11.571048 0,-6.364076 -5.42886,-11.571048 -12.06414,-11.571048 -6.63527,0 -12.06412,5.206972 -12.06412,11.571048 0,6.364076 5.42885,11.571048 12.06412,11.571048 z M 108.24294,32.25628 c 1.05562,0 1.80962,0.867828 1.80962,1.735656 0,0.867829 -0.90481,1.735658 -1.80962,1.735658 -0.90481,0 -1.80962,-0.867829 -1.80962,-1.735658 0,-0.867828 0.75401,-1.735656 1.80962,-1.735656 z m 8.5957,9.401476 c 0.3016,-0.144638 0.75401,-0.433915 1.05561,-0.578553 0.30161,-0.289276 0.75401,-0.144638 1.05561,0.144638 0.30161,0.289277 0.1508,0.723191 -0.1508,1.012467 -1.80962,1.157105 -3.77004,1.735657 -5.88127,1.735657 -2.11122,0 -4.07164,-0.578552 -5.73046,-1.735657 -0.3016,-0.289276 -0.4524,-0.72319 -0.1508,-1.012467 0.3016,-0.289276 0.75401,-0.433914 1.05561,-0.144638 0.30161,0.289276 0.75401,0.433915 1.05561,0.578553 z m -0.90481,-7.66582 c 0,-1.012466 0.90481,-1.735656 1.80962,-1.735656 1.05561,0 1.80962,0.867828 1.80962,1.735656 0,0.867829 -0.90481,1.735658 -1.80962,1.735658 -0.90481,0.144638 -1.80962,-0.72319 -1.80962,-1.735658 z"
       id="path4162"
       style="fill:#d4aa00;stroke-width:1.47687709"
       inkscape:connector-curvature="0" /><path
       d="m 93.313575,70.730013 h 39.510035 v 3.326677 c 0,2.458847 -1.96042,4.339143 -4.52405,4.339143 h -28.1999 c 0.754,1.012466 1.35721,1.880295 1.96042,2.892762 h 26.23948 c 4.22245,0 7.54009,-3.182038 7.54009,-7.231905 V 70.730013 67.837251 17.069279 14.176516 12.874774 c 0,-4.4837816 -3.31764,-8.0997337 -7.54009,-8.0997337 H 97.686825 c -4.22245,0 -7.54008,3.6159521 -7.54008,8.0997337 v 1.301742 2.892763 50.91261 0.144639 c 1.05561,0.867828 2.11122,1.735657 3.16683,2.603485 z m -0.1508,-57.855239 c 0,-2.8927624 1.96042,-5.2069716 4.52405,-5.2069716 h 30.612735 c 2.56363,0 4.52405,2.3142092 4.52405,5.2069716 v 1.301742 H 93.162775 Z m 39.660835,4.194505 v 50.044782 c -1.20641,-9.546114 -9.6513,-16.922657 -19.90582,-16.922657 -10.25451,0 -18.548605,7.376543 -19.755015,16.922657 V 17.069279 Z"
       id="path4164"
       style="fill:#554400;stroke-width:1.47687709"
       inkscape:connector-curvature="0" /><ellipse
       cx="113.06859"
       cy="10.849841"
       id="circle4166"
       rx="1.8096195"
       ry="1.7356573"
       style="stroke-width:1.47687709" /><path
       d="m 11.428297,107.17881 h 87.163338 c 2.262025,0 4.373255,-1.01246 5.881265,-2.60348 1.50802,-1.73566 1.96042,-3.90523 1.50802,-6.074798 -4.97645,-22.997461 -26.390285,-39.77548 -50.970954,-39.77548 -24.580664,0 -45.9944948,16.778019 -50.9709478,39.77548 -0.452405,2.169568 0.150802,4.339138 1.508016,6.074798 1.508016,1.59102 3.619239,2.60348 5.8812628,2.60348 z"
       id="path4168"
       style="fill:#504416;stroke-width:1.47687709"
       inkscape:connector-curvature="0" /><path
       d="m 20.174791,24.011907 c 0,17.501211 14.929361,31.820383 33.176357,31.820383 18.246997,0 33.176357,-14.319172 33.176357,-31.820383 0,-17.5012102 -14.92936,-31.8203818 -33.176357,-31.8203818 -18.246996,0 -33.176357,14.3191716 -33.176357,31.8203818 z"
       id="path4170"
       style="fill:#d4aa00;stroke-width:1.47687709"
       inkscape:connector-curvature="0" /><path
       d="m 116.83864,41.657756 h -7.69089 c 2.41283,1.157104 5.27806,1.157104 7.69089,0 z"
       id="path4172"
       style="fill:#d4aa00;stroke-width:1.47687709"
       inkscape:connector-curvature="0" /><g
       id="g4293"
       transform="matrix(0.51971055,0,0,0.42990792,-467.66891,118.88776)" /></g></svg>