<?xml version="1.0" encoding="UTF-8" standalone="no"?>
<svg
   xmlns:dc="http://purl.org/dc/elements/1.1/"
   xmlns:cc="http://creativecommons.org/ns#"
   xmlns:rdf="http://www.w3.org/1999/02/22-rdf-syntax-ns#"
   xmlns:svg="http://www.w3.org/2000/svg"
   xmlns="http://www.w3.org/2000/svg"
   xmlns:sodipodi="http://sodipodi.sourceforge.net/DTD/sodipodi-0.dtd"
   xmlns:inkscape="http://www.inkscape.org/namespaces/inkscape"
   version="1.1"
   x="0px"
   y="0px"
   viewBox="0 0 96.048271 100"
   enable-background="new 0 0 145 145"
   xml:space="preserve"
   id="svg4459"
   sodipodi:docname="woman1.svg"
   width="96.048271"
   height="100"
   inkscape:version="0.92.1 r15371"><metadata
     id="metadata4465"><rdf:RDF><cc:Work
         rdf:about=""><dc:format>image/svg+xml</dc:format><dc:type
           rdf:resource="http://purl.org/dc/dcmitype/StillImage" /><dc:title></dc:title></cc:Work></rdf:RDF></metadata><defs
     id="defs4463" /><sodipodi:namedview
     pagecolor="#ffffff"
     bordercolor="#666666"
     borderopacity="1"
     objecttolerance="10"
     gridtolerance="10"
     guidetolerance="10"
     inkscape:pageopacity="0"
     inkscape:pageshadow="2"
     inkscape:window-width="640"
     inkscape:window-height="480"
     id="namedview4461"
     showgrid="false"
     fit-margin-top="0"
     fit-margin-left="0"
     fit-margin-right="0"
     fit-margin-bottom="0"
     inkscape:zoom="1.302069"
     inkscape:cx="42.814208"
     inkscape:cy="71.978887"
     inkscape:window-x="221"
     inkscape:window-y="86"
     inkscape:window-maximized="0"
     inkscape:current-layer="svg4459" /><path
     d="m 72.914208,84.1 c 5.1,1.6 15.5,2.1 15.5,2.1 0,0 5.7,-15.9 7.1,-28.1 4.600002,-38.6 -21.3,-58.1 -47.5,-58.1 -26.2,0 -52.0000005,18.5 -47.50000048,58.1 1.39999998,12.2 7.09999998,29.1 7.09999998,29.1 0,0 10.0000005,-1 15.2000005,-2.6 7.2,10.6 19.3,15.4 25.2,15.4 7.5,0 17.7,-5.3 24.9,-15.9 z m -27.5,10.8 c -9.3,-1.4 -24.6,-13.5 -29.5,-37.7 -0.5,-2.4 -0.7,-4.6 -0.9,-6.8 h 18.7 l 1,-7.3 1.8,7.3 h 14.8 29.7 c -0.1,2.2 -0.4,4.5 -0.9,6.8 -2.5,12.3 -17.2,41.4 -34.7,37.7 z"
     id="path4453"
     inkscape:connector-curvature="0" /></svg>