<?xml version="1.0" encoding="UTF-8" standalone="no"?>
<svg
   xmlns:dc="http://purl.org/dc/elements/1.1/"
   xmlns:cc="http://creativecommons.org/ns#"
   xmlns:rdf="http://www.w3.org/1999/02/22-rdf-syntax-ns#"
   xmlns:svg="http://www.w3.org/2000/svg"
   xmlns="http://www.w3.org/2000/svg"
   xmlns:sodipodi="http://sodipodi.sourceforge.net/DTD/sodipodi-0.dtd"
   xmlns:inkscape="http://www.inkscape.org/namespaces/inkscape"
   version="1.1"
   x="0px"
   y="0px"
   viewBox="0 0 94.340721 99.908054"
   enable-background="new 0 0 145 145"
   xml:space="preserve"
   id="svg4487"
   sodipodi:docname="woman2.svg"
   width="94.340721"
   height="99.908051"
   inkscape:version="0.92.1 r15371"><metadata
     id="metadata4493"><rdf:RDF><cc:Work
         rdf:about=""><dc:format>image/svg+xml</dc:format><dc:type
           rdf:resource="http://purl.org/dc/dcmitype/StillImage" /><dc:title></dc:title></cc:Work></rdf:RDF></metadata><defs
     id="defs4491" /><sodipodi:namedview
     pagecolor="#ffffff"
     bordercolor="#666666"
     borderopacity="1"
     objecttolerance="10"
     gridtolerance="10"
     guidetolerance="10"
     inkscape:pageopacity="0"
     inkscape:pageshadow="2"
     inkscape:window-width="640"
     inkscape:window-height="480"
     id="namedview4489"
     showgrid="false"
     fit-margin-top="0"
     fit-margin-left="0"
     fit-margin-right="0"
     fit-margin-bottom="0"
     inkscape:zoom="1.302069"
     inkscape:cx="46.7"
     inkscape:cy="32.775011"
     inkscape:window-x="138"
     inkscape:window-y="84"
     inkscape:window-maximized="0"
     inkscape:current-layer="svg4487" /><path
     d="m 74.4,9.1080482 c 0,0 -23.9,-22.6000002 -52.1,3.3999998 0,0 -15.2,12.4 -12.1,49.3 0,0 2.5,26 -10.2,29.1 0,0 12.7,-0.9 17.1,-8.1 0,0 1.2,7.1 -8.1,9.6 0,0 16.4,0.6 24.7,-6.5 0.5,0.6 0.9,1.2 1.4,1.9 2.5,3.2 5.4,6.2 8.6,8.4 3.1,2.200002 6.6,3.700002 10.2,3.700002 3.6,0 7.1,-1.5 10.2,-3.700002 1.2,-0.9 2.4,-1.8 3.5,-2.9 8.4,-2.3 24.5,-9.8 26.6,-34.7 0,0.1 3.1,-48.3 -19.8,-49.4999998 z M 53.9,96.708048 c -2.7,0 -5.6,-1.1 -8.4,-3.1 -4.2,-2.9 -8.1,-7.7 -11.3,-12.5 -3.1,-4.8 -5.4,-9.7 -6.4,-12.7 -0.1,-0.3 -0.2,-0.5 -0.3,-0.8 -0.2,-1.8 0,-3.5 0.6,-4.9 0,0 8.7,-21.4 22.3,-24.2 0,0 -5.3,8.1 -9.9,10.5 0,0 22.6,-3.4 33.2,-11.2 0,0 1.9,-0.3 1.9,3.4 0,0 1.5,12.1 5.6,17.1 0,0 0.1,3.2 -0.5,7.8 l -0.2,0.6 c -0.2,0.5 -0.4,1.1 -0.6,1.7 -1.3,4 -5,11.3 -9.8,17.4 -2.4,3.1 -5.1,5.8 -7.9,7.8 -2.7,2 -5.6,3.1 -8.3,3.1 z"
     id="path4481"
     inkscape:connector-curvature="0"
     style="fill:#000000" /></svg>