<?xml version="1.0" encoding="UTF-8" standalone="no"?>
<svg
   xmlns:dc="http://purl.org/dc/elements/1.1/"
   xmlns:cc="http://creativecommons.org/ns#"
   xmlns:rdf="http://www.w3.org/1999/02/22-rdf-syntax-ns#"
   xmlns:svg="http://www.w3.org/2000/svg"
   xmlns="http://www.w3.org/2000/svg"
   xmlns:sodipodi="http://sodipodi.sourceforge.net/DTD/sodipodi-0.dtd"
   xmlns:inkscape="http://www.inkscape.org/namespaces/inkscape"
   version="1.1"
   x="0px"
   y="0px"
   viewBox="0 0 98.267151 100.13377"
   enable-background="new 0 0 145 145"
   xml:space="preserve"
   id="svg4501"
   sodipodi:docname="woman3.svg"
   width="98.267151"
   height="100.13377"
   inkscape:version="0.92.1 r15371"><metadata
     id="metadata4507"><rdf:RDF><cc:Work
         rdf:about=""><dc:format>image/svg+xml</dc:format><dc:type
           rdf:resource="http://purl.org/dc/dcmitype/StillImage" /><dc:title></dc:title></cc:Work></rdf:RDF></metadata><defs
     id="defs4505" /><sodipodi:namedview
     pagecolor="#ffffff"
     bordercolor="#666666"
     borderopacity="1"
     objecttolerance="10"
     gridtolerance="10"
     guidetolerance="10"
     inkscape:pageopacity="0"
     inkscape:pageshadow="2"
     inkscape:window-width="640"
     inkscape:window-height="480"
     id="namedview4503"
     showgrid="false"
     inkscape:zoom="1.302069"
     inkscape:cx="41.467149"
     inkscape:cy="31.253146"
     inkscape:window-x="319"
     inkscape:window-y="63"
     inkscape:window-maximized="0"
     inkscape:current-layer="svg4501"
     fit-margin-top="0"
     fit-margin-left="0"
     fit-margin-right="0"
     fit-margin-bottom="0" /><path
     d="m 67.567149,38.455624 c 2.8,-14.2 -8.8,-31.7999995 -17.4,-35.0999995 -16,-6.1 -39.3,-5.9 -47.4000002,17.9999995 -1.5,5.4 -5.9,18.3 1,36.1 7.6000002,19.7 8.3000002,31.4 1.5,40.1 16.1000002,0.1 22.6000002,-21.3 18.3000002,-30.3 0,0 -9.9,-13.9 -9.9,-17.6 0,0 -2.5,-16.6 5.4,-7.1 0,0 -5.8,-17.7 3.9,-21.7 4.6,-1.9 30.4,16.8 30.4,16.8 0,0 4,4 4.1,6.7 0.2,7 -1.1,23.7 -12.2,25.8 0,0 1.2,57.699996 53,13 -0.1,-0.2 -43.8,22.199996 -30.7,-44.7 z"
     id="path4495"
     inkscape:connector-curvature="0" /></svg>