<?xml version="1.0" encoding="UTF-8" standalone="no"?>
<!-- Created with Inkscape (http://www.inkscape.org/) -->

<svg
   xmlns:dc="http://purl.org/dc/elements/1.1/"
   xmlns:cc="http://creativecommons.org/ns#"
   xmlns:rdf="http://www.w3.org/1999/02/22-rdf-syntax-ns#"
   xmlns:svg="http://www.w3.org/2000/svg"
   xmlns="http://www.w3.org/2000/svg"
   xmlns:sodipodi="http://sodipodi.sourceforge.net/DTD/sodipodi-0.dtd"
   xmlns:inkscape="http://www.inkscape.org/namespaces/inkscape"
   width="914"
   height="205"
   id="svg2"
   version="1.1"
   inkscape:version="0.48.4 r9939"
   inkscape:export-filename="/home/zeien/Viking/FB_markup/prep_facebook_pages/images/canvas.png"
   inkscape:export-xdpi="90"
   inkscape:export-ydpi="90"
   sodipodi:docname="canvas.svg">
  <defs
     id="defs4" />
  <sodipodi:namedview
     id="base"
     pagecolor="#ffffff"
     bordercolor="#666666"
     borderopacity="1.0"
     inkscape:pageopacity="0.0"
     inkscape:pageshadow="2"
     inkscape:zoom="0.98994949"
     inkscape:cx="525.29619"
     inkscape:cy="45.762935"
     inkscape:document-units="px"
     inkscape:current-layer="layer1"
     showgrid="false"
     inkscape:window-width="1855"
     inkscape:window-height="1056"
     inkscape:window-x="65"
     inkscape:window-y="24"
     inkscape:window-maximized="1" />
  <metadata
     id="metadata7">
    <rdf:RDF>
      <cc:Work
         rdf:about="">
        <dc:format>image/svg+xml</dc:format>
        <dc:type
           rdf:resource="http://purl.org/dc/dcmitype/StillImage" />
        <dc:title />
      </cc:Work>
    </rdf:RDF>
  </metadata>
  <g
     inkscape:label="Layer 1"
     inkscape:groupmode="layer"
     id="layer1"
     transform="translate(0,-847.36218)">
    <flowRoot
       xml:space="preserve"
       id="flowRoot2985"
       style="font-size:90px;font-style:normal;font-variant:normal;font-weight:normal;font-stretch:normal;text-align:start;line-height:125%;letter-spacing:0px;word-spacing:0px;writing-mode:lr-tb;text-anchor:start;fill:#000000;fill-opacity:1;stroke:none;font-family:Sans;-inkscape-font-specification:Sans"
       transform="translate(55.558386,795.8444)"><flowRegion
         id="flowRegion2987"><rect
           id="rect2989"
           width="846.50781"
           height="148.49243"
           x="35.355339"
           y="34.284222"
           style="font-size:90px;font-style:normal;font-variant:normal;font-weight:normal;font-stretch:normal;text-align:start;line-height:125%;writing-mode:lr-tb;text-anchor:start;font-family:Sans;-inkscape-font-specification:Sans" /></flowRegion><flowPara
         id="flowPara2991">SAVE THE PLANET</flowPara><flowPara
         id="flowPara2993" /></flowRoot>    <path
       style="fill:none;stroke:#000000;stroke-width:1px;stroke-linecap:butt;stroke-linejoin:miter;stroke-opacity:1"
       d="m 26.263966,164.5939 c 2.50152,-1.59172 3.233535,-6.6684 5.050763,-9.09137 0.571428,-0.76191 1.425357,-1.27663 2.020305,-2.02031 0.758412,-0.94802 1.34687,-2.0203 2.020305,-3.03046 0.673435,-1.01015 1.417967,-1.97636 2.020305,-3.03046 2.811257,-4.91969 1.07428,-3.53666 5.050763,-8.08122 1.254294,-1.43347 2.871199,-2.53708 4.04061,-4.04061 1.205401,-1.5498 1.803942,-3.51761 3.030458,-5.05076 1.487369,-1.85921 3.543053,-3.20801 5.050762,-5.05076 1.537568,-1.87925 2.583748,-4.11843 4.040611,-6.06092 1.577908,-2.10387 3.425986,-3.99301 5.050762,-6.06091 2.080314,-2.64767 4.069691,-5.36592 6.060916,-8.08122 1.712916,-2.3358 3.261209,-4.79346 5.050762,-7.07107 1.917955,-2.441032 4.040611,-4.714045 6.060916,-7.071068 2.020305,-2.357022 4.02776,-4.72512 6.060915,-7.071067 2.34423,-2.704881 4.813952,-5.303232 7.071068,-8.081221 2.123316,-2.613312 3.937599,-5.467908 6.060913,-8.08122 2.25712,-2.777989 4.71405,-5.38748 7.07107,-8.081221 4.71405,-5.38748 9.246,-10.939893 14.14214,-16.16244 2.60549,-2.77919 5.56075,-5.224695 8.08122,-8.081221 2.54007,-2.878755 4.53099,-6.212617 7.07106,-9.091373 2.52047,-2.856525 5.38748,-5.38748 8.08122,-8.08122 3.36718,-3.367175 6.82655,-6.644608 10.10153,-10.1015253 23.288,-24.5817767 -6.29525,4.8916483 16.16244,-16.1624408 5.55838,-5.2109799 10.60406,-10.9514609 16.16244,-16.1624409 5.22255,-4.896138 10.77496,-9.42809 16.16244,-14.142135 5.38748,-4.714046 10.75268,-9.453677 16.16244,-14.142136 2.34595,-2.033155 4.64696,-4.121623 7.07107,-6.060915 14.94181,-11.95345 1.15102,-0.515382 16.16244,-11.111678 3.13648,-2.213985 5.92774,-4.896067 9.09137,-7.071068 2.23703,-1.537958 4.78752,-2.572614 7.07107,-4.04061 2.43652,-1.566334 4.63455,-3.48443 7.07107,-5.050763 7.16978,-4.609142 6.19262,-3.28596 13.13198,-7.071068 3.44729,-1.880341 6.58932,-4.304811 10.10153,-6.060915 1.62184,-0.810923 3.39377,-1.283864 5.05076,-2.020304 1.37606,-0.61158 2.73317,-1.2732 4.04061,-2.02031 1.05409,-0.60233 1.91457,-1.54206 3.03046,-2.0203 1.27607,-0.54689 2.79886,-0.38928 4.04061,-1.01015 0.85183,-0.42592 1.13604,-1.6666 2.0203,-2.02031 0.93791,-0.37516 2.03993,0.19811 3.03046,0 0.7383,-0.14766 1.30602,-0.77206 2.02031,-1.01015 0.31943,-0.10648 0.67343,0 1.01015,0 0.33672,0 0.77206,-0.2381 1.01015,0 0.2381,0.23809 0,0.67343 0,1.01015 0,1.34687 0,2.69374 0,4.04061 0,0.67344 0.16333,1.36698 0,2.02031 -0.18261,0.73044 -0.73052,1.32123 -1.01015,2.0203 -0.39546,0.988638 -0.53396,2.078078 -1.01015,3.030459 -0.54294,1.085881 -1.47737,1.944576 -2.02031,3.030458 -0.47619,0.952381 -0.63628,2.033459 -1.01015,3.030457 -0.63669,1.697827 -1.28386,3.393767 -2.02031,5.050763 -0.61158,1.37606 -1.40872,2.66455 -2.0203,4.04061 -2.50984,5.647143 -1.80084,4.952312 -4.04061,11.111678 -0.61968,1.704108 -1.34687,3.367175 -2.02031,5.050763 -1.01015,2.020305 -2.2196,3.952702 -3.03045,6.060915 -0.87998,2.287948 -1.19583,4.762538 -2.02031,7.071068 -0.86249,2.414969 -2.0203,4.714045 -3.03046,7.071068 -2.0203,4.714045 -3.89205,9.494568 -6.06091,14.142135 -1.2736,2.729146 -2.83347,5.322036 -4.04061,8.081221 -1.15312,2.635707 -1.91405,5.429753 -3.03046,8.08122 -5.8474,13.8875843 -3.56406,7.4473479 -9.09137,19.1928985 -1.41207,3.0006348 -2.55753,6.1251995 -4.04061,9.0913725 -1.55037,3.100728 -3.42873,6.027529 -5.05077,9.091373 -1.40913,2.661698 -2.63147,5.419523 -4.04061,8.081221 -1.62203,3.063844 -3.50039,5.990645 -5.05076,9.091373 -1.48309,2.966173 -2.55752,6.125199 -4.04061,9.091372 -4.70356,9.407129 -4.94512,8.406712 -10.10152,17.172594 -16.52674,28.09545 5.19865,-8.231905 -9.09138,17.172593 -1.55735,2.768635 -3.44017,5.343212 -5.05076,8.08122 -4.50598,7.660161 -8.47178,15.660678 -13.13198,23.233508 -1.27257,2.06792 -2.73702,4.01242 -4.04061,6.06092 -2.10819,3.31286 -3.88274,6.83425 -6.06092,10.10152 -0.93388,1.40083 -2.0203,2.69374 -3.03046,4.04061 -1.01015,1.34687 -2.13815,2.61293 -3.03045,4.04061 -0.7981,1.27696 -1.2732,2.73317 -2.02031,4.04061 -0.60234,1.05409 -1.39568,1.98942 -2.0203,3.03046 -0.38738,0.64563 -0.5584,1.41797 -1.01016,2.0203 -1.97334,2.63113 -2.05241,1.10648 -3.03045,4.04062 -0.10648,0.31943 0.15058,0.70898 0,1.01015 -0.21296,0.42592 -1.34687,1.34687 -1.01016,1.01015 0.67344,-0.67343 1.34687,-1.34687 2.02031,-2.0203 0.33672,-0.33672 0.74601,-0.61394 1.01015,-1.01016 4.08847,-6.1327 -2.9079,3.16292 2.02031,-5.05076 0.48999,-0.81666 1.42535,-1.27662 2.0203,-2.02031 1.51683,-1.89603 2.6293,-4.08508 4.04061,-6.06091 1.95713,-2.73998 4.19314,-5.27956 6.06092,-8.08122 1.08909,-1.63363 1.94136,-3.41713 3.03045,-5.05076 0.93389,-1.40083 2.02031,-2.69374 3.03046,-4.04061 1.34687,-2.02031 2.73702,-4.01242 4.04061,-6.06092 3.08805,-4.85265 3.41508,-6.23703 7.07107,-11.11168 1.57791,-2.10388 3.55383,-3.898672 5.05076,-6.060912 1.54524,-2.232008 2.57262,-4.787518 4.04061,-7.071068 1.56634,-2.436519 3.48443,-4.634549 5.05077,-7.071068 8.40694,-13.07747 -0.66275,-1.136648 9.09137,-14.142136 2.3035,-3.071336 4.73896,-6.041697 7.07107,-9.091373 2.04539,-2.674741 3.95745,-5.451898 6.06091,-8.08122 1.93929,-2.424115 4.12162,-4.646953 6.06092,-7.071068 4.20691,-5.258644 7.8752,-10.935817 12.12183,-16.16244 4.51423,-5.555977 9.59129,-10.636414 14.14213,-16.162441 2.44059,-2.9635718 4.54296,-6.2021029 7.07107,-9.0913731 2.19502,-2.50858895 4.71405,-4.7140452 7.07107,-7.0710678 5.38748,-5.3874802 10.60406,-10.9514611 16.16244,-16.1624411 2.61127,-2.448069 5.46995,-4.622998 8.08122,-7.071067 2.77919,-2.60549 5.24221,-5.54105 8.08122,-8.081221 13.28057,-11.882611 7.62445,-6.067742 20.20305,-15.152288 3.11234,-2.247798 5.97904,-4.82327 9.09137,-7.071068 2.95262,-2.132448 6.06092,-4.04061 9.09138,-6.060915 7.10172,-4.734485 11.63595,-7.965512 19.1929,-12.121831 13.72985,-7.551421 6.23563,-2.806035 20.20305,-9.091373 3.43303,-1.544865 6.66849,-3.505897 10.10152,-5.050762 8.91035,-4.009657 10.94657,-4.294124 20.20305,-7.071068 6.52737,-1.95821 15.652,-4.866119 22.22336,-6.060919 3.32938,-0.60534 6.75896,-0.48238 10.10152,-1.01015 3.0664,-0.48417 6.02498,-1.53614 9.09138,-2.0203 8.30739,-1.3117 11.02466,-1.01016 19.1929,-1.01016 3.03045,0 6.06091,0 9.09137,0 2.69374,0 5.39272,-0.16803 8.08122,0 7.56981,0.47312 8.12919,1.02386 15.15229,3.03046 2.97555,0.85016 10.08236,2.76994 13.13198,4.04061 2.08502,0.868759 4.04061,2.020306 6.06091,3.030459 2.02031,1.010152 4.15528,1.817779 6.06092,3.030458 1.81897,1.157527 3.34888,2.716927 5.05076,4.04061 1.32895,1.033623 2.85014,1.839981 4.04061,3.030457 2.51662,2.516615 4.13731,6.205959 6.06092,9.091373 0.93388,1.40083 2.21283,2.56889 3.03046,4.04061 2.07652,3.737752 2.21522,6.025363 3.03045,10.101526 0.33672,1.683588 0.83932,3.342354 1.01016,5.050763 0.16752,1.675232 -0.15243,3.374089 0,5.050762 0.60189,6.620814 1.57325,4.91758 1.01015,11.111678 -0.18543,2.039762 -0.69871,4.03656 -1.01015,6.060916 -0.25633,1.66613 -1.51637,11.11621 -2.02031,13.131983 -0.5165,2.066004 -1.34687,4.04061 -2.0203,6.060915 -0.67344,2.020305 -1.34687,4.04061 -2.02031,6.060915 -0.67343,2.0203054 -1.20123,4.0951415 -2.0203,6.0609156 -0.86876,2.0850182 -2.1617,3.975897 -3.03046,6.06091524 -2.77254,6.65409906 -1.02767,5.79983016 -5.05076,12.12183016 -1.15753,1.818972 -2.88309,3.231792 -4.04061,5.050763 -1.21268,1.905637 -1.81778,4.155278 -3.03046,6.060915 -0.0113,0.01777 -8.03778,10.043598 -8.08122,10.101526 -1.73793,2.317243 -3.19644,4.845874 -5.05077,7.071068 -7.63079,9.156948 -2.23577,1.225626 -10.10152,9.091373 -1.52455,1.524553 -2.43804,3.608445 -4.04061,5.050762 -1.8048,1.624317 -4.09722,2.612468 -6.06092,4.04061 -0.0647,0.04704 -10.07267,8.062863 -10.10152,8.081221 -1.90564,1.212678 -4.04061,2.020305 -6.06092,3.030457 -2.0203,1.010153 -4.04061,2.020306 -6.06091,3.030458 -2.02031,1.010153 -4.04061,2.020305 -6.06092,3.030458 -2.0203,1.010152 -3.9527,2.219606 -6.06091,3.030457 -3.3345,1.282498 -11.94946,3.125516 -15.15229,4.040611 -2.04765,0.585043 -3.98586,1.541446 -6.06092,2.020305 -2.31998,0.535379 -4.7178,0.648111 -7.07106,1.010152 -2.02436,0.31144 -4.04061,0.673435 -6.06092,1.010153 -15.11829,2.519715 3.76552,-0.579311 -13.13198,2.020305 -2.02436,0.311439 -4.02116,0.82472 -6.06092,1.010152 -1.67667,0.152425 -3.36717,0 -5.05076,0 -2.02031,0 -4.04061,0 -6.06092,0 -4.37732,0 -8.75465,0 -13.13198,0 -1.68359,0 -3.36717,0 -5.05076,0 -1.01015,0 -2.03405,0.166068 -3.03046,0 -1.05031,-0.175051 -1.98015,-0.835101 -3.03046,-1.010152 -0.51464,-0.08577 -5.53898,0.260968 -6.06091,0 -0.42592,-0.212959 -0.58424,-0.797194 -1.01015,-1.010153 -0.30117,-0.150584 -0.67344,0 -1.01016,0 -0.33671,0 -0.67343,0 -1.01015,0 -0.33672,0 -1.34687,0 -1.01015,0 1.13434,0 6.3489,-0.240721 7.07107,0 0.71428,0.238096 1.282,0.862492 2.0203,1.010153 0.99054,0.198107 2.03046,-0.142857 3.03046,0 1.37437,0.196338 2.66624,0.813814 4.04061,1.010152 1,0.142858 2.03046,-0.142857 3.03046,0 1.37436,0.196339 2.68534,0.708984 4.04061,1.010153 1.67604,0.372454 3.36717,0.673435 5.05076,1.010152 1.68359,0.336718 3.36153,0.703019 5.05076,1.010153 2.01514,0.366388 4.0739,0.513398 6.06092,1.010153 2.066,0.516501 3.98586,1.541446 6.06091,2.020305 2.31998,0.535379 4.73635,0.543209 7.07107,1.010152 5.44545,1.089089 10.69365,3.07553 16.16244,4.04061 3.00271,0.52989 6.07958,0.53461 9.09137,1.01015 11.12937,1.75727 10.47715,2.49724 22.22336,5.05077 7.35739,1.59943 14.81557,2.69374 22.22336,4.04061 3.70389,0.67343 7.44067,1.18598 11.11167,2.0203 3.7437,0.85084 7.36014,2.2149 11.11168,3.03046 4.00285,0.87018 8.11898,1.15012 12.12183,2.0203 3.75155,0.81556 7.36013,2.21491 11.11168,3.03046 4.00285,0.87019 8.11898,1.15012 12.12183,2.02031 3.75155,0.81555 7.36013,2.2149 11.11168,3.03045 27.96333,4.66056 -3.12794,-0.94047 23.23351,5.05077 3.671,0.83432 7.42619,1.25249 11.11168,2.0203 4.39794,0.91624 8.74214,2.07615 13.13198,3.03046 3.22781,0.7017 15.71564,3.01789 19.1929,4.04061 2.76001,0.81177 5.3212,2.21869 8.08122,3.03046 2.97823,0.87595 6.07968,1.26738 9.09137,2.0203 4.7563,1.18908 9.45626,2.5988 14.14214,4.04061 2.03541,0.62628 4.00636,1.45998 6.06091,2.02031 1.65643,0.45175 3.40624,0.51679 5.05076,1.01015 1.73681,0.52104 3.33054,1.4469 5.05077,2.02031 1.31707,0.43902 2.74068,0.52268 4.04061,1.01015 1.40996,0.52874 2.63064,1.49156 4.04061,2.0203 1.29992,0.48748 2.7057,0.62875 4.04061,1.01016 1.9735,-0.0428 3.33053,1.44689 5.05076,2.0203 0.31944,0.10648 0.70898,-0.15058 1.01015,0 0.42592,0.21296 0.58424,0.79719 1.01015,1.01015 0.6037,0.30185 2.02031,-0.66497 2.02031,1.01016 0,0.33671 -0.67344,0 -1.01015,0 -0.67344,0 -1.38143,0.21295 -2.02031,0 -0.45175,-0.15059 -0.67343,-0.67344 -1.01015,-1.01016 -0.67344,-0.33671 -1.28986,-0.82754 -2.02031,-1.01015 -4.62307,-1.15577 1.05032,2.04039 -5.05076,-1.01015 -1.08588,-0.54294 -1.94457,-1.47737 -3.03046,-2.02031 -0.95238,-0.47619 -2.05175,-0.59071 -3.03045,-1.01015 -1.38409,-0.59318 -2.69374,-1.34687 -4.04061,-2.0203 -2.69374,-1.34687 -5.44853,-2.57801 -8.08122,-4.04061 -1.71631,-0.95351 -3.29466,-2.15241 -5.05077,-3.03046 -1.62184,-0.81093 -3.42891,-1.20938 -5.05076,-2.02031 -1.7561,-0.87805 -3.35483,-2.04116 -5.05076,-3.03046 -2.34491,-1.36786 -4.64297,-2.82655 -7.07107,-4.04061 -2.29364,-1.14681 -4.74273,-1.95584 -7.07107,-3.03045 -6.58655,-3.03995 -12.60634,-7.06158 -19.1929,-10.10153 -2.32833,-1.07462 -4.74273,-1.95584 -7.07106,-3.03046 -2.05088,-0.94655 -4.01005,-2.0839 -6.06092,-3.03045 -2.32834,-1.07462 -4.74273,-1.95584 -7.07107,-3.03046 -4.10174,-1.89311 -8.00921,-4.19155 -12.12183,-6.06092 -1.65075,-0.75034 -3.36717,-1.34687 -5.05076,-2.0203 -14.67472,-5.86989 4.5732,1.82928 -10.10153,-4.04061 -1.68358,-0.67344 -3.35293,-1.38362 -5.05076,-2.02031 -0.997,-0.37387 -2.07808,-0.53396 -3.03046,-1.01015 -3.4904,-1.7452 -2.25234,-2.395696 -6.06091,-3.030457 -0.99641,-0.166068 -2.03992,0.198107 -3.03046,0 -0.7383,-0.147661 -1.30602,-0.772058 -2.0203,-1.010153 -0.31944,-0.106479 -0.70899,0.150585 -1.01016,0 -0.42591,-0.212959 -0.58423,-0.797193 -1.01015,-1.010152 -0.60234,-0.30117 -2.0203,0.673435 -2.0203,0 0,-0.336718 0.67343,0 1.01015,0 0.67343,0 1.34687,0 2.0203,0 1.68359,0 3.36718,0 5.05077,0 4.37732,0 8.75465,0 13.13198,0 1.34687,0 2.69374,0 4.04061,0 1.34687,0 2.70198,-0.148737 4.04061,0 12.06298,1.340331 -1.92338,1.010152 10.10152,1.010152 4.04062,0 8.08123,0 12.12184,0 2.0203,0 4.04656,-0.15495 6.06091,0 2.37394,0.182611 4.69617,0.840517 7.07107,1.010153 5.03793,0.359852 10.11136,-0.315058 15.15229,0 2.70941,0.169338 5.3718,0.840814 8.08122,1.010152 5.71305,0.357065 11.4538,-0.248643 17.17259,0 4.7216,0.205285 9.42096,0.795555 14.14214,1.010155 2.69096,0.12231 5.39162,-0.14942 8.08122,0 6.75751,0.37542 13.44355,1.68233 20.20305,2.0203 3.36297,0.16815 6.73816,-0.16016 10.10152,0 3.71496,0.17691 7.40779,0.67344 11.11168,1.01016 11.11168,1.01015 22.22336,2.0203 33.33503,3.03045 11.11029,1.01003 22.21751,2.104 33.33504,3.03046 11.78997,0.9825 23.57676,1.90869 35.35534,3.03046 6.73745,0.64166 13.4687,1.34687 20.20305,2.0203 3.36717,0.33672 6.72223,0.8323 10.10152,1.01016 3.02627,0.15927 6.06559,-0.1681 9.09138,0 29.74815,1.65267 -9.9233,0.32681 17.17259,2.0203 2.68849,0.16803 5.39273,-0.16803 8.08122,0 2.70942,0.16934 5.37253,0.82957 8.08122,1.01015 2.3518,0.15679 4.71405,0 7.07107,0 2.69374,0.33672 5.37341,0.81674 8.08122,1.01016 2.01517,0.14394 4.04759,-0.16778 6.06091,0 2.0411,0.17009 4.02116,0.82472 6.06092,1.01015 1.67667,0.15242 3.37747,-0.18592 5.05076,0 1.37983,0.15331 2.66301,0.83795 4.04061,1.01015 1.33647,0.16706 2.69374,0 4.04061,0 1.34687,0 2.69374,0 4.04061,0 1.01016,0 2.03405,-0.16607 3.03046,0 1.05031,0.17505 1.98634,0.80133 3.03046,1.01015 1.32071,0.26415 2.69374,0 4.04061,0 0.33672,0 0.69071,-0.10648 1.01015,0 0.71429,0.2381 1.30602,0.77206 2.02031,1.01016 0.39307,0.13102 2.87369,-0.15677 3.03045,0 0.2381,0.23809 -0.23809,0.77205 0,1.01015 0.47619,0.47619 1.54412,-0.47619 2.02031,0 0.23809,0.23809 -0.2381,0.77206 0,1.01015 0.67368,0.67369 1.34662,-0.67368 2.0203,0 0.2381,0.2381 -0.23809,0.77206 0,1.01015 0.2381,0.2381 0.67344,0 1.01016,0 0.33671,0 0.70898,0.15059 1.01015,0 0.42592,-0.21295 0.58423,-0.79719 1.01015,-1.01015 0.30117,-0.15058 0.70898,0.15059 1.01015,0 0.42592,-0.21296 0.58424,-0.79719 1.01016,-1.01015 0.30117,-0.15059 0.70898,0.15058 1.01015,0 0.42592,-0.21296 0.67343,-0.67344 1.01015,-1.01015 0.78902,-0.78902 2.1588,-2.44935 3.03046,-3.03046 0.62647,-0.41765 1.48791,-0.47776 2.0203,-1.01015 0.5324,-0.5324 0.47776,-1.48791 1.01016,-2.02031 0.53239,-0.5324 1.37468,-0.62278 2.0203,-1.01015 6.21832,-3.73099 0.29287,-0.23429 5.05076,-4.04061 0.94802,-0.75841 2.17199,-1.16184 3.03049,-2.02031 0.8584,-0.85846 1.1618,-2.17199 2.0203,-3.03045 0.8584,-0.85847 2.0425,-1.31466 3.0304,-2.02031 1.37,-0.97856 2.7624,-1.93479 4.0406,-3.03046 1.0847,-0.9297 1.9459,-2.10075 3.0305,-3.030455 1.2783,-1.095664 2.7623,-1.934793 4.0406,-3.030457 5.4624,-4.682032 0.4246,-1.629906 7.0711,-6.060916 3.2672,-2.178178 6.9258,-3.751302 10.1015,-6.060915 2.1269,-1.546802 3.957,-3.472854 6.0609,-5.050763 3.885,-2.913725 8.2369,-5.167495 12.1219,-8.08122 2.1038,-1.577909 3.957,-3.472854 6.0609,-5.050763 1.9425,-1.456862 4.0645,-2.658509 6.0609,-4.04061 2.3815,-1.648747 4.6345,-3.484429 7.0711,-5.050763 2.2835,-1.467996 4.7432,-2.643906 7.071,-4.04061 2.7239,-1.63434 5.3875,-3.367175 8.0812,-5.050763 5.3875,-3.367175 10.775,-6.73435 16.1625,-10.101525 2.6937,-1.683588 5.3432,-3.440169 8.0812,-5.050763 9.6102,-5.653035 19.6164,-10.632136 29.2944,-16.16244 12.16,-6.948535 7.4761,-4.94493 19.1929,-11.1116784 6.6628,-3.5067132 13.5403,-6.59481229 20.2031,-10.1015255 9.1611,-4.8216331 9.4885,-5.7345805 19.1929,-10.1015251 6.6142,-2.976423 13.5887,-5.104798 20.203,-8.081221 24.1437,-10.864656 -3.0955,0.293238 19.1929,-9.091373 3.3424,-1.407311 6.745,-2.667476 10.1015,-4.04061 4.0515,-1.6574 8.0313,-3.492454 12.1219,-5.050763 2.9851,-1.137185 6.1142,-1.872665 9.0913,-3.030457 21.9209,-8.524788 -2.8628,2.69e-4 17.1726,-7.071068 3.0123,-1.063155 6.0791,-1.967303 9.0914,-3.030458 5.4258,-1.91499 10.775,-4.04061 16.1625,-6.060915 2.6937,-1.010152 5.41,-1.961998 8.0812,-3.030458 4.7619,-1.904761 9.3552,-4.219809 14.1421,-6.060915 13.3285,-5.126349 -1.6754,1.247762 13.132,-4.04061 2.415,-0.862489 4.6776,-2.109905 7.0711,-3.030458 1.9876,-0.764477 4.0595,-1.292533 6.0609,-2.020305 3.4082,-1.239351 6.7875,-2.567725 10.1015,-4.04061 2.7521,-1.223164 5.2613,-2.983134 8.0812,-4.04061 1.3,-0.487472 2.7646,-0.463266 4.0406,-1.010153 1.1159,-0.478238 1.9446,-1.477364 3.0305,-2.020305 2.2936,-1.146818 4.7277,-1.98897 7.0711,-3.030457 6.8038,-3.023907 -4.5684,1.77911 5.0507,-3.030458 3.7448,-1.248248 2.0781,-0.533962 5.0508,-2.020305 4.2346,-2.117293 -0.194,0.09699 4.0406,-2.020305 0.6734,-0.336718 1.2899,-0.827542 2.0203,-1.010154 0.6533,-0.16333 1.3814,0.21296 2.0203,0 0.4518,-0.15058 0.5842,-0.79719 1.0102,-1.01015 0.3011,-0.15059 0.6907,0.10648 1.0101,0 0.7143,-0.2381 1.306,-0.77206 2.0203,-1.01015 0.3195,-0.10648 0.709,0.15058 1.0102,0 0.4259,-0.21296 0.5842,-0.7972 1.0101,-1.01016 0.3012,-0.15058 0.709,0.15059 1.0102,0 0.4259,-0.21296 0.5842,-0.79719 1.0101,-1.01015 0.3012,-0.15058 0.709,0.15059 1.0102,0 0.4259,-0.21296 0.5842,-0.79719 1.0101,-1.01015 0.6024,-0.30117 1.418,0.30117 2.0203,0 0.426,-0.21296 0.6735,-0.67344 1.0102,-1.01015"
       id="path2995"
       inkscape:connector-curvature="0"
       transform="translate(0,847.36218)" />
  </g>
</svg>
