<?xml version="1.0" encoding="UTF-8" standalone="no"?>
<!-- Created with Inkscape (http://www.inkscape.org/) -->

<svg
   xmlns:dc="http://purl.org/dc/elements/1.1/"
   xmlns:cc="http://creativecommons.org/ns#"
   xmlns:rdf="http://www.w3.org/1999/02/22-rdf-syntax-ns#"
   xmlns:svg="http://www.w3.org/2000/svg"
   xmlns="http://www.w3.org/2000/svg"
   xmlns:sodipodi="http://sodipodi.sourceforge.net/DTD/sodipodi-0.dtd"
   xmlns:inkscape="http://www.inkscape.org/namespaces/inkscape"
   width="32px"
   height="32px"
   id="svg2985"
   version="1.1"
   inkscape:version="0.48.4 r9939"
   sodipodi:docname="FBicon.svg">
  <defs
     id="defs2987" />
  <sodipodi:namedview
     id="base"
     pagecolor="#ffffff"
     bordercolor="#666666"
     borderopacity="1.0"
     inkscape:pageopacity="0.0"
     inkscape:pageshadow="2"
     inkscape:zoom="11.197802"
     inkscape:cx="17.602382"
     inkscape:cy="22.34922"
     inkscape:current-layer="layer1"
     showgrid="true"
     inkscape:grid-bbox="true"
     inkscape:document-units="px"
     inkscape:window-width="927"
     inkscape:window-height="1028"
     inkscape:window-x="64"
     inkscape:window-y="24"
     inkscape:window-maximized="0"
     inkscape:snap-bbox="false">
    <inkscape:grid
       type="xygrid"
       id="grid2993" />
  </sodipodi:namedview>
  <metadata
     id="metadata2990">
    <rdf:RDF>
      <cc:Work
         rdf:about="">
        <dc:format>image/svg+xml</dc:format>
        <dc:type
           rdf:resource="http://purl.org/dc/dcmitype/StillImage" />
      </cc:Work>
    </rdf:RDF>
  </metadata>
  <g
     id="layer1"
     inkscape:label="Layer 1"
     inkscape:groupmode="layer">
    <rect
       style="fill:#ffffff;fill-rule:evenodd;stroke:#000000;stroke-width:0;stroke-linecap:butt;stroke-linejoin:round;stroke-opacity:1;fill-opacity:0;stroke-miterlimit:4;stroke-dasharray:none"
       id="rect3016"
       width="32"
       height="32"
       x="0"
       y="0" />
    <path
       style="fill:#ffffff;fill-opacity:1;stroke-width:0.10000000000000001;stroke-linejoin:round;stroke-miterlimit:4;stroke-dasharray:none"
       d="M 5.1875 0.09375 C 2.3680267 0.09375 0.09375 2.3237497 0.09375 5.09375 L 0.09375 27.09375 C 0.09375 29.86375 2.3680267 32.09375 5.1875 32.09375 L 27 32.09375 C 29.819473 32.09375 32.09375 29.86375 32.09375 27.09375 L 32.09375 5.09375 C 32.09375 2.3237497 29.819473 0.09375 27 0.09375 L 5.1875 0.09375 z M 22.15625 7.6875 L 24.875 7.6875 L 24.875 10.0625 L 22.125 10.0625 C 21.093742 10.062522 20.374993 10.270855 19.96875 10.6875 C 19.57291 11.104188 19.374994 11.854187 19.375 12.9375 L 19.375 14.5 L 24.125 14.5 L 24.125 16.75 L 19.375 16.75 L 19.375 32 L 16.5 32 L 16.5 16.75 L 13.75 16.75 L 13.75 14.5 L 16.5 14.5 L 16.5 13.28125 C 16.499997 11.333354 16.937496 9.9166888 17.84375 9.03125 C 18.749994 8.1354405 20.187493 7.6875243 22.15625 7.6875 z "
       id="rect3794" />
  </g>
</svg>
