<?xml version="1.0" encoding="UTF-8" standalone="no"?>
<!-- Created with Inkscape (http://www.inkscape.org/) -->

<svg
   xmlns:dc="http://purl.org/dc/elements/1.1/"
   xmlns:cc="http://creativecommons.org/ns#"
   xmlns:rdf="http://www.w3.org/1999/02/22-rdf-syntax-ns#"
   xmlns:svg="http://www.w3.org/2000/svg"
   xmlns="http://www.w3.org/2000/svg"
   xmlns:sodipodi="http://sodipodi.sourceforge.net/DTD/sodipodi-0.dtd"
   xmlns:inkscape="http://www.inkscape.org/namespaces/inkscape"
   width="100"
   height="100"
   id="svg2"
   version="1.1"
   inkscape:version="0.48.4 r9939"
   sodipodi:docname="friendpic.svg"
   inkscape:export-filename="/home/zeien/Viking/FB_markup/prep_facebook_pages/images/friendpic.png"
   inkscape:export-xdpi="90"
   inkscape:export-ydpi="90">
  <defs
     id="defs4" />
  <sodipodi:namedview
     id="base"
     pagecolor="#ffffff"
     bordercolor="#666666"
     borderopacity="1.0"
     inkscape:pageopacity="0.0"
     inkscape:pageshadow="2"
     inkscape:zoom="5.6"
     inkscape:cx="45.924609"
     inkscape:cy="59.595611"
     inkscape:document-units="px"
     inkscape:current-layer="layer1"
     showgrid="false"
     inkscape:window-width="1855"
     inkscape:window-height="1056"
     inkscape:window-x="65"
     inkscape:window-y="24"
     inkscape:window-maximized="1" />
  <metadata
     id="metadata7">
    <rdf:RDF>
      <cc:Work
         rdf:about="">
        <dc:format>image/svg+xml</dc:format>
        <dc:type
           rdf:resource="http://purl.org/dc/dcmitype/StillImage" />
        <dc:title></dc:title>
      </cc:Work>
    </rdf:RDF>
  </metadata>
  <g
     inkscape:label="Layer 1"
     inkscape:groupmode="layer"
     id="layer1"
     transform="translate(0,-952.36218)">
    <path
       style="fill:none;stroke:#000000;stroke-width:1px;stroke-linecap:butt;stroke-linejoin:miter;stroke-opacity:1"
       d="m 62.142857,17.142857 c -0.238095,-0.119048 -0.833333,-0.119048 -0.714285,-0.357143 0.119047,-0.238095 0.902516,0.545374 0.714285,0.357143 -0.297619,-0.178571 -0.595238,-0.357143 -0.892857,-0.535714 -0.05952,0 -0.125332,0.02662 -0.178571,0 -0.07529,-0.03765 -0.103279,-0.140926 -0.178572,-0.178572 -0.05324,-0.02662 -0.136481,0.04209 -0.178571,0 -0.04209,-0.04209 0.04209,-0.136481 0,-0.178571 -0.04209,-0.04209 -0.125332,0.02662 -0.178572,0 -0.07529,-0.03765 -0.103279,-0.140925 -0.178571,-0.178572 -0.106479,-0.05324 -0.272963,0.08418 -0.357143,0 -0.04209,-0.04209 0.04209,-0.136481 0,-0.178571 -0.04297,-0.04297 -0.671316,0.04297 -0.714286,0 -0.04209,-0.04209 0.04209,-0.136482 0,-0.178571 -0.0057,-0.0057 -0.492406,0 -0.535714,0 -0.09338,0 -0.667332,0.02348 -0.714286,0 -0.07529,-0.03765 -0.103279,-0.140926 -0.178571,-0.178572 -0.112236,-0.05612 -0.60205,0.05612 -0.714286,0 -0.07529,-0.03765 -0.09871,-0.151951 -0.178571,-0.178571 -0.112939,-0.03765 -0.24165,0.02887 -0.357143,0 -0.129125,-0.03228 -0.230874,-0.136482 -0.357143,-0.178572 -0.05647,-0.01882 -0.122102,0.01882 -0.178571,0 C 55.94516,15.136482 55.825031,15.07383 55.714286,15 c -0.07004,-0.04669 -0.09871,-0.151952 -0.178572,-0.178572 -0.112938,-0.03765 -0.241649,0.02887 -0.357142,0 -0.258251,-0.06456 -0.456036,-0.29258 -0.714286,-0.357142 -0.115493,-0.02887 -0.24165,0.02887 -0.357143,0 -0.129125,-0.03228 -0.238095,-0.119048 -0.357143,-0.178572 -0.119048,-0.05952 -0.246397,-0.104741 -0.357143,-0.178571 -0.07004,-0.0467 -0.09871,-0.151952 -0.178571,-0.178572 -0.112939,-0.03765 -0.24165,0.02887 -0.357143,0 -0.517899,-0.129474 -0.208976,-0.139317 -0.535714,-0.357143 -0.41059,-0.273726 -0.482268,-0.08342 -0.892857,-0.357142 -0.07004,-0.04669 -0.09871,-0.151952 -0.178572,-0.178572 -0.112938,-0.03765 -0.238095,0 -0.357143,0 -0.05952,0 -0.125331,0.02662 -0.178571,0 -0.07529,-0.03765 -0.103279,-0.140925 -0.178572,-0.178571 -0.106479,-0.05324 -0.250663,0.05324 -0.357142,0 -0.07529,-0.03765 -0.10328,-0.140926 -0.178572,-0.178572 -0.106479,-0.05324 -0.250663,0.05324 -0.357143,0 -0.07529,-0.03765 -0.103279,-0.140925 -0.178571,-0.178571 -0.142857,-0.07143 -0.392857,0.07143 -0.535714,0 -0.07529,-0.03765 -0.10328,-0.140925 -0.178572,-0.178572 -0.142857,-0.07143 -0.392857,0.07143 -0.535714,0 -0.07529,-0.03765 -0.103279,-0.140925 -0.178572,-0.178571 -0.05434,-0.02717 -0.455293,0 -0.535714,0 -0.47619,0 -0.952381,0 -1.428571,0 -0.09967,0 -0.811114,0.02725 -0.892857,0 -0.07986,-0.02662 -0.10328,-0.140925 -0.178572,-0.178571 -0.05324,-0.02662 -0.119048,0 -0.178571,0 -0.297619,0 -0.595238,0 -0.892857,0 -0.119048,0 -0.24165,0.02887 -0.357143,0 -0.129126,-0.03228 -0.228018,-0.146291 -0.357143,-0.178572 -0.115493,-0.02887 -0.238095,0 -0.357143,0 -0.119048,0 -0.238095,0 -0.357143,0 -0.535714,0 -1.071428,0 -1.607143,0 -1.015535,0 -0.117564,0.07986 -0.892857,-0.178571 -0.115699,-0.03857 -0.746661,0 -0.892857,0 -0.357143,0 -0.714286,0 -1.071429,0 -0.08042,0 -0.481369,-0.02717 -0.535714,0 -0.07529,0.03765 -0.103279,0.140925 -0.178571,0.178571 -0.0708,0.0354 -0.499208,-0.03651 -0.535715,0 -0.04209,0.04209 0.04209,0.136482 0,0.178572 -0.04209,0.04209 -0.136481,-0.04209 -0.178571,0 -0.04209,0.04209 0.04209,0.136481 0,0.178571 -0.08418,0.08418 -0.272964,-0.08418 -0.357143,0 -0.04209,0.04209 0.04209,0.136482 0,0.178571 -0.04209,0.04209 -0.136482,-0.04209 -0.178571,0 -0.04209,0.04209 0.04209,0.136482 0,0.178572 -0.04209,0.04209 -0.136482,-0.04209 -0.178572,0 -0.04209,0.04209 0.04209,0.136482 0,0.178571 -0.04209,0.04209 -0.136482,-0.04209 -0.178571,0 -0.04209,0.04209 0.04209,0.136482 0,0.178572 -0.04209,0.04209 -0.136482,-0.04209 -0.178572,0 -0.04209,0.04209 0.04209,0.136481 0,0.178571 -0.04209,0.04209 -0.136481,-0.04209 -0.178571,0 -0.04209,0.04209 0.02662,0.125332 0,0.178572 -0.04753,0.09505 -0.309618,0.262093 -0.357143,0.357142 -0.02662,0.05324 0.02662,0.125332 0,0.178572 -0.03765,0.07529 -0.140925,0.103279 -0.178571,0.178571 -0.02662,0.05324 0.02662,0.125332 0,0.178572 -0.03765,0.07529 -0.140926,0.103279 -0.178572,0.178571 -0.02662,0.05324 0.02662,0.125332 0,0.178572 -0.03765,0.07529 -0.140925,0.103279 -0.178571,0.178571 -0.02662,0.05324 0.02662,0.125332 0,0.178571 -0.376471,0.752942 0.01933,-0.395798 -0.357143,0.357143 -0.02662,0.05324 0.02662,0.125332 0,0.178572 -0.07529,0.150584 -0.303903,0.197423 -0.357143,0.357143 -0.03765,0.112938 0.03765,0.244204 0,0.357142 -0.05324,0.15972 -0.28185,0.206559 -0.357143,0.357143 -0.02662,0.05324 0.03302,0.129045 0,0.178572 -0.09339,0.140083 -0.28185,0.206558 -0.357143,0.357143 -0.05324,0.106479 0.03765,0.244204 0,0.357142 -0.05324,0.15972 -0.263754,0.21706 -0.357143,0.357143 -0.242118,0.363178 -0.115024,0.351108 -0.357142,0.714286 -0.07348,0.110218 -0.283664,0.246925 -0.357143,0.357143 -0.147661,0.22149 -0.209483,0.492795 -0.357143,0.714286 -0.04669,0.07004 -0.131877,0.108529 -0.178572,0.178571 C 31.354741,19.753602 31.32383,19.889255 31.25,20 c -0.04669,0.07004 -0.131877,0.10853 -0.178571,0.178571 -0.07383,0.110746 -0.104742,0.246398 -0.178572,0.357143 -0.04669,0.07004 -0.131877,0.10853 -0.178571,0.178572 -0.07383,0.110745 -0.104741,0.246397 -0.178572,0.357142 -0.137362,0.206044 -0.398351,0.329671 -0.535714,0.535715 -0.03302,0.04953 0.04209,0.136481 0,0.178571 -0.09411,0.09412 -0.263027,0.08446 -0.357143,0.178572 -0.09411,0.09411 -0.104741,0.246397 -0.178571,0.357142 -0.09339,0.140083 -0.281851,0.206559 -0.357143,0.357143 -0.02662,0.05324 0,0.119048 0,0.178572 -0.05952,0.119047 -0.104741,0.246397 -0.178572,0.357143 -0.10735,0.161025 -0.679558,0.610103 -0.714285,0.714285 -0.03765,0.112939 0.06604,0.25809 0,0.357143 -0.07383,0.110745 -0.263028,0.08446 -0.357143,0.178572 -0.09412,0.09411 -0.104741,0.246397 -0.178572,0.357142 C 27.631877,24.89147 27.559524,24.940476 27.5,25 c -0.05952,0.119047 -0.104741,0.246397 -0.178571,0.357143 -0.04669,0.07004 -0.131877,0.10853 -0.178572,0.178571 -0.312062,0.468093 -0.06675,0.312062 -0.357143,0.892857 -0.03765,0.07529 -0.131877,0.10853 -0.178571,0.178572 -0.14766,0.22149 -0.209483,0.492795 -0.357143,0.714285 -0.04669,0.07004 -0.131877,0.10853 -0.178571,0.178572 -0.07383,0.110745 -0.09871,0.250663 -0.178572,0.357143 -0.101015,0.134687 -0.256127,0.222456 -0.357143,0.357143 -0.159719,0.212958 -0.197423,0.501326 -0.357143,0.714285 -0.101015,0.134687 -0.256127,0.222456 -0.357142,0.357143 -0.15972,0.212959 -0.209483,0.492795 -0.357143,0.714286 -0.140083,0.210124 -0.384192,0.333684 -0.535715,0.535714 -0.07986,0.10648 -0.09871,0.250664 -0.178571,0.357143 -0.101015,0.134687 -0.256128,0.222456 -0.357143,0.357143 -0.07986,0.106479 -0.09871,0.250663 -0.178571,0.357143 -0.101015,0.134687 -0.256128,0.222456 -0.357143,0.357143 -0.07986,0.106479 -0.119048,0.238095 -0.178572,0.357142 -0.119047,0.119048 -0.251969,0.225677 -0.357142,0.357143 -0.324064,0.208781 -0.327466,0.615193 -0.535715,0.892857 -0.101015,0.134687 -0.256127,0.222456 -0.357143,0.357143 -0.07986,0.10648 -0.09871,0.250664 -0.178571,0.357143 -0.20203,0.269374 -0.512255,0.444912 -0.714286,0.714286 -0.159719,0.212959 -0.197423,0.501327 -0.357143,0.714286 -0.20203,0.269374 -0.512255,0.444911 -0.714285,0.714285 -0.159719,0.212959 -0.197424,0.501327 -0.357143,0.714286 C 19.006128,37.277544 18.851015,37.365313 18.75,37.5 c -0.07986,0.106479 -0.110092,0.243011 -0.178571,0.357143 -0.110419,0.184032 -0.246724,0.351682 -0.357143,0.535714 -0.06848,0.114132 -0.08446,0.263027 -0.178572,0.357143 -0.09411,0.09412 -0.263027,0.08446 -0.357143,0.178571 -0.09412,0.09412 -0.119047,0.238096 -0.178571,0.357143 -0.07577,0.151544 -0.453679,0.989393 -0.535714,1.071429 -0.09412,0.09412 -0.263028,0.08446 -0.357143,0.178571 -0.123066,0.123066 -0.404775,0.87502 -0.535714,1.071429 -0.04669,0.07004 -0.131878,0.10853 -0.178572,0.178571 -0.07383,0.110745 -0.104741,0.246398 -0.178571,0.357143 C 15.620897,42.28294 15.450532,42.359917 15.357143,42.5 14.70977,43.794747 15.545374,42.217654 15,43.035714 c -0.05952,0.119048 -0.119048,0.238095 -0.178571,0.357143 0,0.05952 0.02662,0.125332 0,0.178571 -0.03765,0.07529 -0.119048,0.119048 -0.178572,0.178572 -0.13948,0.13948 -0.432988,0.381625 -0.535714,0.535714 -0.273727,0.41059 -0.08342,0.482268 -0.357143,0.892857 -0.137363,0.206044 -0.398352,0.329671 -0.535714,0.535715 -0.05952,0.119047 -0.119048,0.238095 -0.178572,0.357142 0,0.05952 0.02662,0.125332 0,0.178572 -0.03765,0.07529 -0.131877,0.10853 -0.178571,0.178571 -0.07383,0.110746 -0.104741,0.246398 -0.178572,0.357143 -0.09339,0.140083 -0.303903,0.197424 -0.357142,0.357143 -0.03765,0.112939 0.03765,0.244204 0,0.357143 -0.02662,0.07986 -0.140926,0.103279 -0.178572,0.178571 -0.02662,0.05324 0,0.119048 0,0.178572 -0.05952,0.119047 -0.104741,0.246397 -0.178571,0.357143 -0.09339,0.140083 -0.281851,0.206558 -0.357143,0.357142 -0.02662,0.05324 0,0.119048 0,0.178572 -0.05952,0.119048 -0.104741,0.246397 -0.178572,0.357143 -0.04669,0.07004 -0.151951,0.09871 -0.178571,0.178571 -0.03765,0.112939 0.03765,0.244205 0,0.357143 -0.02662,0.07986 -0.140925,0.103279 -0.178571,0.178571 -0.02662,0.05324 0.02662,0.125332 0,0.178572 -0.408626,0.817251 0.07401,-0.757753 -0.357143,0.535714 -0.01882,0.05647 0.02662,0.125332 0,0.178572 -0.408626,0.817251 0.07401,-0.757753 -0.357143,0.535714 -0.05647,0.169408 0.05647,0.366306 0,0.535714 -0.02662,0.07986 -0.131877,0.10853 -0.178572,0.178572 C 9.7851494,52.054213 10.084179,52.331641 10,52.5 c -0.037646,0.07529 -0.1519516,0.09871 -0.1785714,0.178571 -0.037646,0.112939 0.037646,0.244205 0,0.357143 -0.05324,0.159719 -0.3039032,0.197424 -0.3571429,0.357143 -0.037646,0.112939 0,0.238095 0,0.357143 0,0.05952 0.02662,0.125332 0,0.178571 -0.037646,0.07529 -0.1519515,0.09871 -0.1785714,0.178572 -0.037646,0.112938 0,0.238095 0,0.357143 0,0.05952 0.02662,0.125331 0,0.178571 -0.037646,0.07529 -0.1409253,0.103279 -0.1785714,0.178571 -0.02662,0.05324 0.018823,0.122103 0,0.178572 -0.04209,0.126269 -0.1364818,0.230874 -0.1785715,0.357143 -0.056469,0.169407 0.056469,0.366306 0,0.535714 -0.02662,0.07986 -0.1409252,0.103279 -0.1785714,0.178571 -0.05324,0.10648 0.037646,0.244205 0,0.357143 -0.04209,0.126269 -0.1364817,0.230874 -0.1785714,0.357143 -0.056703,0.170109 0.057979,0.71892 0,0.892857 -0.04209,0.126269 -0.1462901,0.228018 -0.1785714,0.357143 -0.04331,0.17324 0.056469,0.366307 0,0.535714 -0.04209,0.12627 -0.1462902,0.228018 -0.1785715,0.357143 -0.028873,0.115493 0.037646,0.244205 0,0.357143 -0.02662,0.07986 -0.1519515,0.09871 -0.1785714,0.178572 -0.075292,0.225877 0.057747,0.483299 0,0.714285 -0.032281,0.129126 -0.1462901,0.228018 -0.1785714,0.357143 -0.057747,0.230987 0.057747,0.4833 0,0.714286 -0.032281,0.129125 -0.1462901,0.228018 -0.1785715,0.357143 -0.028873,0.115493 0,0.238095 0,0.357143 0,0.119047 0,0.238095 0,0.357142 0,0.654762 0,1.309524 0,1.964286 0,0.258249 0.037714,1.061431 0,1.25 C 7.6524685,65.666229 7.5261029,65.762342 7.5,65.892857 c -0.035021,0.175104 0,0.357143 0,0.535714 0,0.535715 0,1.071429 0,1.607143 0,0.297619 0,0.595238 0,0.892857 0,0.119048 -0.028873,0.24165 0,0.357143 0.032281,0.129125 0.1524685,0.226628 0.1785714,0.357143 0.034661,0.173307 0,1.216679 0,1.428572 0,0.119047 -0.028873,0.241649 0,0.357142 0.032281,0.129126 0.1462902,0.228018 0.1785715,0.357143 0.028873,0.115493 -0.023347,0.240407 0,0.357143 0.036915,0.184576 0.1416563,0.351139 0.1785714,0.535714 0.023347,0.116736 -0.023347,0.240407 0,0.357143 0.036915,0.184576 0.1416563,0.351139 0.1785714,0.535715 0.023347,0.116735 -0.028873,0.241649 0,0.357142 0.064563,0.258251 0.2925803,0.456036 0.3571429,0.714286 0.028873,0.115493 -0.028873,0.24165 0,0.357143 0.032281,0.129125 0.1462901,0.228018 0.1785714,0.357143 0.028873,0.115493 -0.028873,0.24165 0,0.357143 0.4145136,0.829027 0.015157,-0.102785 0.1785714,0.714285 0.1857929,0.928965 0.1190477,0.178572 0.3571429,0.892858 0.018823,0.05647 -0.018823,0.122102 0,0.178571 0.04209,0.126269 0.1462901,0.228018 0.1785714,0.357143 0.028873,0.115493 -0.037646,0.244204 0,0.357143 0.02662,0.07986 0.1519516,0.09871 0.1785715,0.178571 0.037646,0.112939 -0.028873,0.24165 0,0.357143 C 9.5352271,79.073204 9.9321324,79.082111 10,79.285714 c 0.03765,0.112939 -0.028873,0.24165 0,0.357143 -0.1076301,0.323204 0.289275,0.332112 0.357143,0.535714 0.03765,0.112939 -0.03765,0.244205 0,0.357143 0.02662,0.07986 0.140925,0.103279 0.178571,0.178572 0.02662,0.05324 -0.01882,0.122102 0,0.178571 0.04209,0.126269 0.119048,0.238095 0.178572,0.357143 0.05952,0.119048 0.104741,0.246398 0.178571,0.357143 0.04669,0.07004 0.131877,0.10853 0.178572,0.178571 0.07383,0.110746 0.104741,0.246398 0.178571,0.357143 0.04669,0.07004 0.131877,0.10853 0.178571,0.178572 0.07383,0.110745 0.104742,0.246397 0.178572,0.357142 0.217194,0.325792 0.139948,0.03135 0.357143,0.357143 0.07383,0.110746 0.104741,0.246398 0.178571,0.357143 0.273496,0.410244 0.102,-0.07657 0.535714,0.357143 0.433715,0.433715 -0.0531,0.262218 0.357143,0.535714 0.110746,0.07383 0.263028,0.08446 0.357143,0.178572 0.09412,0.09412 0.104741,0.246397 0.178572,0.357143 0.04669,0.07004 0.119047,0.119047 0.178571,0.178571 0.05952,0.05952 0.10853,0.131877 0.178571,0.178571 0.110746,0.07383 0.230874,0.136482 0.357143,0.178572 0.05647,0.01882 0.129045,-0.03302 0.178572,0 0.01877,0.01252 0.657522,0.695364 0.714285,0.714286 0.112939,0.03765 0.244205,-0.03765 0.357143,0 0.07986,0.02662 0.10853,0.131877 0.178572,0.178571 0.110745,0.07383 0.246397,0.104741 0.357143,0.178571 0.07004,0.04669 0.103279,0.140926 0.178571,0.178572 0.05324,0.02662 0.125332,-0.02662 0.178571,0 0.07529,0.03765 0.10853,0.131877 0.178572,0.178571 0.110745,0.07383 0.238095,0.119048 0.357143,0.178572 0.119047,0.05952 0.230874,0.136481 0.357143,0.178571 0.05647,0.01882 0.125331,-0.02662 0.178571,0 0.07529,0.03765 0.09871,0.151952 0.178571,0.178572 0.112939,0.03765 0.244205,-0.03765 0.357143,0 0.159719,0.05324 0.197424,0.303903 0.357143,0.357142 0.112939,0.03765 0.244205,-0.03765 0.357143,0 0.07986,0.02662 0.10853,0.131878 0.178571,0.178572 0.110746,0.07383 0.230874,0.136482 0.357143,0.178571 0.05647,0.01882 0.125332,-0.02662 0.178572,0 0.07529,0.03765 0.103279,0.140926 0.178571,0.178572 0.05324,0.02662 0.122102,-0.01882 0.178572,0 0.252538,0.08418 0.461747,0.272963 0.714285,0.357143 0.05647,0.01882 0.125332,-0.02662 0.178572,0 0.07529,0.03765 0.103279,0.140925 0.178571,0.178571 0.05324,0.02662 0.122102,-0.01882 0.178572,0 0.126269,0.04209 0.230873,0.136482 0.357142,0.178571 0.112939,0.03765 0.250664,-0.05324 0.357143,0 0.07529,0.03765 0.103279,0.140926 0.178572,0.178572 0.05324,0.02662 0.122102,-0.01882 0.178571,0 0.126269,0.04209 0.228018,0.14629 0.357143,0.178571 0.115493,0.02887 0.244204,-0.03765 0.357143,0 0.07986,0.02662 0.103279,0.140926 0.178571,0.178572 0.05324,0.02662 0.119048,0 0.178572,0 0.119047,0.05952 0.246397,0.104741 0.357143,0.178571 0.07004,0.04669 0.09871,0.151952 0.178571,0.178572 0.112939,0.03765 0.244204,-0.03765 0.357143,0 0.07986,0.02662 0.09871,0.151951 0.178571,0.178571 0.112939,0.03765 0.24165,-0.02887 0.357143,0 0.354623,0.08866 0.716806,0.447059 1.071429,0.535714 0.115493,0.02887 0.241649,-0.02887 0.357143,0 0.129125,0.03228 0.230873,0.136482 0.357142,0.178572 0.05647,0.01882 0.122103,-0.01882 0.178572,0 0.126269,0.04209 0.228017,0.14629 0.357143,0.178571 0.115493,0.02887 0.241649,-0.02887 0.357143,0 0.129125,0.03228 0.233563,0.12914 0.357142,0.178572 0.09293,0.41762 0.505361,0.108929 0.714286,0.178571 0.126269,0.04209 0.228018,0.14629 0.357143,0.178571 0.115493,0.02887 0.238095,0 0.357143,0 0.119048,0.05952 0.230874,0.136482 0.357143,0.178572 0.169408,0.05647 0.362474,-0.04331 0.535714,0 0.129125,0.03228 0.228018,0.14629 0.357143,0.178571 0.115493,0.02887 0.244204,-0.03765 0.357143,0 0.07986,0.02662 0.09871,0.151952 0.178571,0.178572 0.225877,0.07529 0.488409,-0.07529 0.714286,0 0.07986,0.02662 0.09871,0.151951 0.178571,0.178571 0.237171,0.07906 0.32819,-0.06918 0.535715,0 0.126269,0.04209 0.230873,0.136482 0.357142,0.178572 0.05647,0.01882 0.122103,-0.01882 0.178572,0 0.126269,0.04209 0.228018,0.14629 0.357143,0.178571 0.157539,0.03938 0.561311,-0.05099 0.714286,0 0.126269,0.04209 0.230873,0.136482 0.357142,0.178571 0.05647,0.01882 0.122103,-0.01882 0.178572,0 0.126269,0.04209 0.230874,0.136482 0.357143,0.178572 0.160714,0.05357 0.375,-0.05357 0.535714,0 0.07986,0.02662 0.09871,0.151951 0.178571,0.178571 0.225877,0.07529 0.488409,-0.07529 0.714286,0 0.07986,0.02662 0.09871,0.151952 0.178572,0.178572 0.112938,0.03765 0.244204,-0.03765 0.357142,0 0.07986,0.02662 0.09871,0.151951 0.178572,0.178571 0.225877,0.07529 0.483299,-0.05775 0.714286,0 0.129125,0.03228 0.230873,0.136482 0.357142,0.178572 0.169408,0.05647 0.362475,-0.04331 0.535715,0 0.129125,0.03228 0.230873,0.136481 0.357143,0.178571 0.169407,0.05647 0.362474,-0.04331 0.535714,0 0.129125,0.03228 0.228017,0.14629 0.357143,0.178571 0.310043,0.07751 0.761384,-0.07751 1.071428,0 0.129126,0.03228 0.228018,0.146291 0.357143,0.178572 0.145215,0.0363 0.884493,0 1.071429,0 0.119047,0 0.244204,-0.03765 0.357143,0 0.07986,0.02662 0.09871,0.151951 0.178571,0.178571 0.169408,0.05647 0.357143,0 0.535714,0 0.297619,0 0.595238,0 0.892857,0 1.130953,0 2.261905,0 3.392858,0 0.714285,0 1.428571,0 2.142857,0 0.153273,0 0.96695,0.03483 1.071428,0 0.07986,-0.02662 0.09871,-0.151951 0.178572,-0.178571 0.112938,-0.03765 0.238095,0 0.357143,0 0.05952,0 0.125331,0.02662 0.178571,0 0.07529,-0.03765 0.119048,-0.119048 0.178571,-0.178572 0.119048,0 0.244205,0.03765 0.357143,0 0.07986,-0.02662 0.09871,-0.151951 0.178572,-0.178571 0.112938,-0.03765 0.244204,0.03765 0.357143,0 0.07986,-0.02662 0.108529,-0.131877 0.178571,-0.178571 0.110745,-0.07383 0.238095,-0.119048 0.357143,-0.178572 0.119047,-0.05952 0.228017,-0.14629 0.357143,-0.178571 0.115493,-0.02887 0.244204,0.03765 0.357143,0 0.07986,-0.02662 0.108529,-0.131877 0.178571,-0.178572 0.32967,-0.21978 0.741758,-0.315934 1.071429,-0.535714 0.07004,-0.04669 0.119047,-0.119048 0.178571,-0.178571 0.178571,-0.119048 0.351682,-0.246724 0.535714,-0.357143 0.228264,-0.136958 0.492795,-0.209483 0.714286,-0.357143 0.07004,-0.04669 0.10853,-0.131877 0.178571,-0.178572 0.221491,-0.14766 0.501327,-0.197423 0.714286,-0.357142 0.134687,-0.101016 0.222456,-0.256128 0.357143,-0.357143 0.212959,-0.159719 0.501327,-0.197424 0.714286,-0.357143 0.134687,-0.101015 0.222456,-0.256128 0.357143,-0.357143 0.521481,-0.391111 0.192804,0.03397 0.714285,-0.357143 0.772374,-0.772373 -0.04731,-0.02799 0.714286,-0.535714 0.210124,-0.140083 0.333684,-0.384192 0.535714,-0.535714 0.10648,-0.07986 0.250664,-0.09871 0.357143,-0.178572 0.134687,-0.101015 0.222456,-0.256127 0.357143,-0.357143 0.106479,-0.07986 0.250663,-0.09871 0.357143,-0.178571 0.333333,-0.25 0.559524,-0.642857 0.892857,-0.892857 0.212959,-0.159719 0.526055,-0.168912 0.714286,-0.357143 0.09411,-0.09412 0.08446,-0.263028 0.178571,-0.357143 0.09412,-0.09412 0.250664,-0.09871 0.357143,-0.178571 0.134687,-0.101016 0.222456,-0.256128 0.357143,-0.357143 0.106479,-0.07986 0.263027,-0.08446 0.357143,-0.178572 0.09412,-0.09412 0.08446,-0.263027 0.178571,-0.357143 0.09412,-0.09412 0.263028,-0.08446 0.357143,-0.178571 0.433715,-0.433715 -0.0531,-0.262218 0.357143,-0.535714 0.110745,-0.07383 0.246397,-0.104742 0.357143,-0.178572 0.07004,-0.04669 0.119047,-0.119047 0.178571,-0.178571 0.119048,-0.119048 0.238095,-0.238095 0.357143,-0.357143 0.178571,-0.178571 0.357143,-0.357143 0.535714,-0.535714 0.05952,-0.05952 0.131877,-0.10853 0.178572,-0.178572 0.07383,-0.110745 0.08446,-0.263027 0.178571,-0.357143 0.09412,-0.09412 0.263028,-0.08446 0.357143,-0.178571 0.09412,-0.09412 0.08446,-0.263027 0.178571,-0.357143 0.09412,-0.09412 0.263028,-0.08446 0.357143,-0.178571 0.09412,-0.09412 0.09871,-0.250664 0.178572,-0.357143 0.151523,-0.202031 0.395631,-0.32559 0.535714,-0.535714 0.14766,-0.221491 0.197424,-0.501327 0.357143,-0.714286 0.151523,-0.202031 0.395631,-0.32559 0.535714,-0.535714 0.02218,-0.03326 0.3457,-0.702843 0.357143,-0.714286 0.09412,-0.09412 0.263027,-0.08446 0.357143,-0.178572 0.320478,-0.320478 0.513087,-0.847602 0.714286,-1.25 0.05952,-0.119047 0.08446,-0.263027 0.178571,-0.357142 0.09412,-0.09412 0.263027,-0.08446 0.357143,-0.178572 0.09775,-0.09775 0.43077,-0.896522 0.535714,-1.071428 -0.01744,-0.394927 0.370625,-0.466652 0.535714,-0.714286 0.147661,-0.221491 0.209483,-0.492795 0.357143,-0.714286 0.04669,-0.07004 0.131877,-0.10853 0.178572,-0.178571 0.14766,-0.221491 0.209482,-0.492795 0.357143,-0.714286 0.140083,-0.210124 0.384191,-0.333684 0.535714,-0.535714 0.206885,-0.275847 0.337472,-0.774065 0.535714,-1.071429 0.04669,-0.07004 0.131877,-0.10853 0.178572,-0.178571 0.273504,-0.410257 0.08364,-0.30403 0.357142,-0.714286 0.04669,-0.07004 0.119048,-0.119048 0.178572,-0.178571 0.05952,-0.119048 0.110092,-0.243012 0.178571,-0.357143 -0.03689,-0.365759 0.378252,-0.478093 0.535715,-0.714286 0.07383,-0.110745 0.119047,-0.238095 0.178571,-0.357143 0.178571,-0.357143 0.357143,-0.714286 0.535714,-1.071428 0.05952,-0.119048 0.09871,-0.250664 0.178572,-0.357143 0.101015,-0.134687 0.256127,-0.222456 0.357143,-0.357143 0.206885,-0.275847 0.337471,-0.774065 0.535714,-1.071429 C 78.354369,66.57559 78.598477,66.45203 78.75,66.25 c 0.07986,-0.106479 0.119048,-0.238095 0.178572,-0.357143 0.05952,-0.119048 0.119047,-0.238095 0.178571,-0.357143 0.119048,-0.238095 0.258279,-0.467126 0.357143,-0.714286 0.06991,-0.174767 0.08173,-0.374307 0.178571,-0.535714 0.08662,-0.144366 0.281851,-0.206558 0.357143,-0.357143 0.05324,-0.106479 -0.02887,-0.241649 0,-0.357143 0.03228,-0.129125 0.119048,-0.238095 0.178572,-0.357142 0.05952,-0.119048 0.119047,-0.238096 0.178571,-0.357143 0.178571,-0.357143 0.357143,-0.714286 0.535714,-1.071429 0.05952,-0.119047 0.12914,-0.233563 0.178572,-0.357143 0.06991,-0.174768 0.108664,-0.360946 0.178571,-0.535714 0.09886,-0.247159 0.258279,-0.467126 0.357143,-0.714286 0.221906,-0.554765 0.135237,-0.695235 0.357143,-1.25 0.09886,-0.247159 0.258279,-0.467126 0.357143,-0.714285 0.06991,-0.174768 0.09439,-0.367356 0.178571,-0.535715 0.03765,-0.07529 0.140925,-0.103279 0.178572,-0.178571 0.539264,-1.078529 -0.02574,-0.07561 0.178571,-0.892857 0.06456,-0.258251 0.272964,-0.461748 0.357143,-0.714286 0.01882,-0.05647 0,-0.119048 0,-0.178571 0.05952,-0.119048 0.119048,-0.238096 0.178571,-0.357143 0.05952,-0.119048 0.152469,-0.226629 0.178572,-0.357143 0.03502,-0.175104 0,-0.357143 0,-0.535714 0,-0.05952 -0.01882,-0.122103 0,-0.178572 0.505865,-1.011729 -0.06655,0.266199 0.178571,-0.714286 0.03228,-0.129125 0.14629,-0.228017 0.178572,-0.357142 0.05775,-0.230987 -0.05775,-0.4833 0,-0.714286 0.03228,-0.129125 0.152468,-0.226628 0.178571,-0.357143 0.05837,-0.291839 0,-0.595238 0,-0.892857 0,-0.119048 -0.02887,-0.24165 0,-0.357143 0.03228,-0.129125 0.14629,-0.228018 0.178571,-0.357143 0.02887,-0.115493 0,-0.238095 0,-0.357143 0,-0.416666 0,-0.833333 0,-1.25 0,-0.119047 -0.02335,-0.240407 0,-0.357143 0.03692,-0.184575 0.147627,-0.350044 0.178572,-0.535714 0.02936,-0.176142 0,-0.357143 0,-0.535714 0,-0.416667 0,-0.833333 0,-1.25 0,-0.470588 0,-0.243698 0,-0.714286 0,-0.119047 0.02335,-0.240407 0,-0.357143 -0.03692,-0.184575 -0.141656,-0.351138 -0.178572,-0.535714 -0.02335,-0.116736 0,-0.238095 0,-0.357143 0,-0.178571 0,-0.357143 0,-0.535714 0,-0.119048 0.02887,-0.24165 0,-0.357143 -0.03228,-0.129125 -0.152468,-0.226628 -0.178571,-0.357143 -0.05837,-0.291839 0.07218,-0.604124 0,-0.892857 -0.03228,-0.129125 -0.14629,-0.228018 -0.178571,-0.357143 -0.02887,-0.115493 0,-0.238095 0,-0.357143 0,-0.178571 0,-0.357143 0,-0.535714 0,-0.119048 0.02887,-0.24165 0,-0.357143 -0.03228,-0.129125 -0.146291,-0.228017 -0.178572,-0.357143 -0.07751,-0.310044 0.07751,-0.761384 0,-1.071428 -0.03228,-0.129126 -0.14629,-0.228018 -0.178571,-0.357143 -0.02887,-0.115493 0,-0.238095 0,-0.357143 0,-0.357143 0,-0.714286 0,-1.071429 0,-0.119047 0.03765,-0.244204 0,-0.357142 -0.02662,-0.07986 -0.151952,-0.09871 -0.178572,-0.178572 -0.08929,-0.267857 0.08929,-0.625 0,-0.892857 -0.02662,-0.07986 -0.151951,-0.09871 -0.178571,-0.178571 -0.07529,-0.225877 0.07529,-0.488409 0,-0.714286 -0.02662,-0.07986 -0.151952,-0.09871 -0.178572,-0.178572 -0.05501,-0.165043 0.05552,-0.726287 0,-0.892857 -0.04209,-0.126269 -0.14629,-0.228017 -0.178571,-0.357143 -0.02887,-0.115493 0.03765,-0.244204 0,-0.357142 -0.02662,-0.07986 -0.140925,-0.10328 -0.178571,-0.178572 -0.05268,-0.105361 0.04094,-0.412887 0,-0.535714 C 82.636482,32.373731 82.54209,32.269126 82.5,32.142857 c -0.03765,-0.112938 0.05324,-0.250663 0,-0.357143 -0.03765,-0.07529 -0.140925,-0.103279 -0.178571,-0.178571 -0.02662,-0.05324 0.02662,-0.125332 0,-0.178572 -0.03765,-0.07529 -0.140926,-0.103279 -0.178572,-0.178571 -0.02662,-0.05324 0.02662,-0.125332 0,-0.178572 -0.03765,-0.07529 -0.140925,-0.103279 -0.178571,-0.178571 -0.02662,-0.05324 0.01882,-0.122102 0,-0.178571 -0.04209,-0.12627 -0.136482,-0.230874 -0.178572,-0.357143 -0.01882,-0.05647 0.02662,-0.125332 0,-0.178572 -0.107142,-0.214285 -0.428571,-0.321428 -0.535714,-0.535714 -0.02662,-0.05324 0.01882,-0.122102 0,-0.178571 -0.431156,-1.293468 0.05148,0.281537 -0.357143,-0.535715 -0.02662,-0.05324 0,-0.119047 0,-0.178571 -0.05952,-0.119048 -0.104741,-0.246398 -0.178571,-0.357143 -0.09339,-0.140083 -0.263754,-0.21706 -0.357143,-0.357143 -0.07383,-0.110745 -0.104741,-0.246397 -0.178571,-0.357143 -0.09339,-0.140083 -0.263755,-0.21706 -0.357143,-0.357143 -0.647374,-1.294746 0.188231,0.282347 -0.357143,-0.535714 -0.07383,-0.110745 -0.104741,-0.246397 -0.178572,-0.357143 -0.09339,-0.140083 -0.263754,-0.21706 -0.357142,-0.357143 -0.07383,-0.110745 -0.104742,-0.246397 -0.178572,-0.357142 -0.140083,-0.210125 -0.395631,-0.32559 -0.535714,-0.535715 -0.03302,-0.04953 0.02662,-0.125331 0,-0.178571 -0.04135,-0.08269 -0.60926,-0.60926 -0.714286,-0.714286 -0.05952,-0.05952 -0.151951,-0.09871 -0.178571,-0.178571 -0.03765,-0.112939 0.05324,-0.250664 0,-0.357143 -0.02662,-0.05324 -0.125332,0.02662 -0.178572,0 -0.07529,-0.03765 -0.140925,-0.103279 -0.178571,-0.178572 -0.02662,-0.05324 0,-0.119047 0,-0.178571 -0.05952,-0.05952 -0.140925,-0.103279 -0.178572,-0.178571 -0.02662,-0.05324 0.02662,-0.125332 0,-0.178572 C 76.678572,22.821428 76.357143,22.714286 76.25,22.5 c -0.02662,-0.05324 0.04209,-0.136482 0,-0.178572 -0.04209,-0.04209 -0.136482,0.04209 -0.178571,0 -0.04209,-0.04209 0.02662,-0.125331 0,-0.178571 -0.107143,-0.214286 -0.428572,-0.321429 -0.535715,-0.535714 -0.02662,-0.05324 0.02662,-0.125332 0,-0.178572 -0.08786,-0.175719 -0.626426,-0.538566 -0.714285,-0.714285 -0.02662,-0.05324 0.04209,-0.136482 0,-0.178572 -0.04209,-0.04209 -0.136482,0.04209 -0.178572,0 -0.04209,-0.04209 0.02662,-0.125332 0,-0.178571 C 74.605211,20.28185 74.52381,20.238095 74.464286,20.178571 74.404762,20.119047 74.361007,20.037646 74.285714,20 c -0.05324,-0.02662 -0.125331,0.02662 -0.178571,0 -0.743171,-0.371586 0.190899,0.01233 -0.178571,-0.357143 -0.04209,-0.04209 -0.136482,0.04209 -0.178572,0 -0.36947,-0.369471 0.5646,0.01444 -0.178571,-0.357143 -0.05324,-0.02662 -0.136482,0.04209 -0.178572,0 -0.04209,-0.04209 0.04209,-0.136482 0,-0.178571 -0.04209,-0.04209 -0.125331,0.02662 -0.178571,0 -0.743172,-0.371586 0.190899,0.01233 -0.178572,-0.357143 -0.04209,-0.04209 -0.119047,0 -0.178571,0 0,-0.05952 0.02662,-0.125332 0,-0.178572 -0.371586,-0.743171 0.01233,0.1909 -0.357143,-0.178571 -0.04209,-0.04209 0.04209,-0.136482 0,-0.178571 -0.04209,-0.04209 -0.136482,0.04209 -0.178571,0 -0.04209,-0.04209 0.02662,-0.125332 0,-0.178572 -0.03765,-0.07529 -0.140926,-0.103279 -0.178572,-0.178571 -0.02662,-0.05324 0.04209,-0.136482 0,-0.178572 -0.04209,-0.04209 -0.136481,0.04209 -0.178571,0 -0.04209,-0.04209 0.02662,-0.125331 0,-0.178571 -0.371586,-0.743172 0.01233,0.190899 -0.357143,-0.178572 -0.04209,-0.04209 0.04209,-0.136481 0,-0.178571 -0.04209,-0.04209 -0.136482,0.04209 -0.178571,0 -0.369471,-0.369471 0.5646,0.01444 -0.178572,-0.357143 -0.05324,-0.02662 -0.136482,0.04209 -0.178571,0 -0.04209,-0.04209 0.04209,-0.136482 0,-0.178571 -0.119403,-0.119403 -0.23774,0.119403 -0.357143,0 -0.04209,-0.04209 0.04209,-0.136482 0,-0.178572 -0.04209,-0.04209 -0.136482,0.04209 -0.178572,0 -0.04209,-0.04209 0.04209,-0.136481 0,-0.178571 -0.08418,-0.08418 -0.272963,0.08418 -0.357142,0 -0.369471,-0.369471 0.5646,0.01444 -0.178572,-0.357143 -0.106479,-0.05324 -0.272963,0.08418 -0.357143,0 -0.04209,-0.04209 0.04209,-0.136482 0,-0.178571 -0.08418,-0.08418 -0.250663,0.05324 -0.357143,0 -0.07529,-0.03765 -0.103279,-0.140926 -0.178571,-0.178572 -0.06458,-0.03229 -0.768654,0 -0.892857,0 -0.535714,0 -1.071429,0 -1.607143,0 -0.05952,0 -0.119048,0 -0.178571,0 -0.05952,0 -0.136482,-0.04209 -0.178572,0 -0.04209,0.04209 0.04209,0.136482 0,0.178572 -0.08929,0.08929 -0.446428,-0.08929 -0.535714,0 -0.04209,0.04209 0.04209,0.136481 0,0.178571 -0.08418,0.08418 -0.250664,-0.05324 -0.357143,0 -0.07529,0.03765 -0.103279,0.140925 -0.178571,0.178571 -0.05324,0.02662 -0.125332,-0.02662 -0.178572,0 -0.07529,0.03765 -0.103279,0.140926 -0.178571,0.178572 -0.05324,0.02662 -0.136482,-0.04209 -0.178572,0 -0.04209,0.04209 0.04209,0.136482 0,0.178571 -0.08418,0.08418 -0.250663,-0.05324 -0.357143,0 -0.07529,0.03765 -0.103279,0.140926 -0.178571,0.178572 -0.106479,0.05324 -0.250663,-0.05324 -0.357143,0 -0.07529,0.03765 -0.103279,0.140925 -0.178571,0.178571 -0.105361,0.05268 -0.412887,-0.04094 -0.535715,0 -0.304096,0.101366 -0.572311,0.357143 -0.892857,0.357143 -0.320545,0 -0.588761,-0.255777 -0.892857,-0.357143 -0.143732,-0.04791 -0.600175,0.05706 -0.714286,0 -0.07529,-0.03765 -0.103279,-0.140925 -0.178571,-0.178571 -0.05324,-0.02662 -0.119048,0 -0.178571,0 -0.126572,0 -1.025259,0.02308 -1.071429,0 -0.07529,-0.03765 -0.103279,-0.140926 -0.178571,-0.178572 -0.112237,-0.05612 -0.60205,0.05612 -0.714286,0 -0.07529,-0.03765 -0.103279,-0.140925 -0.178572,-0.178571 -0.06458,-0.03229 -0.768653,0 -0.892857,0 -0.714285,0 -1.428571,0 -2.142857,0"
       id="path3003"
       inkscape:connector-curvature="0"
       transform="translate(0,952.36218)" />
    <path
       style="fill:none;stroke:#000000;stroke-width:1px;stroke-linecap:butt;stroke-linejoin:miter;stroke-opacity:1"
       d="m 47.678572,44.642857 c 0.532397,-0.171937 -0.1331,-0.626659 0,-0.892857 0.03765,-0.07529 0.140925,-0.103279 0.178571,-0.178572 0.05612,-0.112236 -0.05612,-0.602049 0,-0.714285 0.03765,-0.07529 0.140925,-0.103279 0.178571,-0.178572 0.02662,-0.05324 -0.01882,-0.122102 0,-0.178571 0.04209,-0.126269 0.136482,-0.230874 0.178572,-0.357143 0.03765,-0.112938 -0.05324,-0.250663 0,-0.357143 0.03765,-0.07529 0.151951,-0.09871 0.178571,-0.178571 0.03765,-0.112939 -0.03765,-0.244205 0,-0.357143 0.02662,-0.07986 0.151952,-0.09871 0.178572,-0.178572 0,-0.812908 -0.08418,-0.01021 0.178571,-0.535714 0.02662,-0.05324 0,-0.119047 0,-0.178571 0,-0.119048 -0.03765,-0.244205 0,-0.357143 0.02662,-0.07986 0.119048,-0.119048 0.178572,-0.178572 0,-0.119047 -0.02887,-0.241649 0,-0.357142 -0.107631,-0.323204 0.289275,-0.332112 0.357142,-0.535715 0.03765,-0.112938 -0.03765,-0.244204 0,-0.357143 0.02662,-0.07986 0.119048,-0.119047 0.178572,-0.178571 0,-0.119048 -0.02887,-0.24165 0,-0.357143 -0.10763,-0.323204 0.289275,-0.332111 0.357143,-0.535714 0.03765,-0.112939 -0.03765,-0.244205 0,-0.357143 0.02662,-0.07986 0.140925,-0.103279 0.178571,-0.178571 0.08418,-0.168359 0.09439,-0.367356 0.178572,-0.535715 0.03765,-0.07529 0.151951,-0.09871 0.178571,-0.178571 0.03765,-0.112939 -0.02887,-0.24165 0,-0.357143 -0.10763,-0.323204 0.289275,-0.332112 0.357143,-0.535714 0.03765,-0.112939 -0.03765,-0.244205 0,-0.357143 0.02662,-0.07986 0.131877,-0.10853 0.178571,-0.178572 0.647374,-1.294746 -0.188231,0.282347 0.357143,-0.535714 0.393422,-0.08993 0.09439,-0.367355 0.178572,-0.535714 0.07529,-0.150585 0.263754,-0.21706 0.357142,-0.357143 0.392692,-0.08847 0.09472,-0.368009 0.178572,-0.535714 0.371586,-0.743172 -0.01233,0.190899 0.357143,-0.178572 0.04209,-0.04209 -0.02662,-0.125331 0,-0.178571 0.02371,-0.04741 0.488301,-0.512008 0.535714,-0.535714 0.05324,-0.02662 0.136482,0.04209 0.178571,0 0.04209,-0.04209 -0.04209,-0.136482 0,-0.178572 0.04209,-0.04209 0.125332,0.02662 0.178572,0 C 53.428572,31.678571 53.535714,31.357143 53.75,31.25 c 0.05324,-0.02662 0.125332,0.02662 0.178572,0 0.214285,-0.107143 0.321428,-0.428572 0.535714,-0.535714 0.05324,-0.02662 0.136482,0.04209 0.178571,0 0.04209,-0.04209 -0.04209,-0.136482 0,-0.178572 0.04209,-0.04209 0.125332,0.02662 0.178572,0 0.150584,-0.07529 0.206558,-0.28185 0.357143,-0.357143 0.05324,-0.02662 0.136481,0.04209 0.178571,0 0.04209,-0.04209 -0.04209,-0.136481 0,-0.178571 0.04209,-0.04209 0.119048,0 0.178571,0 0.0842,0 0.884764,0.0081 0.892858,0 0.04209,-0.04209 -0.04209,-0.136482 0,-0.178572 0.04209,-0.04209 0.119047,0 0.178571,0 0.05952,0 0.119048,0 0.178571,0 0.595239,0 1.190477,0 1.785715,0 0.153266,0 1.333524,-0.03168 1.428571,0 0.07986,0.02662 0.103279,0.140926 0.178572,0.178572 0.113561,0.05678 0.74496,-0.0493 0.892857,0 0.07986,0.02662 0.103279,0.140925 0.178571,0.178571 0.10648,0.05324 0.250664,-0.05324 0.357143,0 0.07529,0.03765 0.103279,0.140926 0.178571,0.178572 0.142858,0.07143 0.392858,-0.07143 0.535715,0 0.07529,0.03765 0.103279,0.140925 0.178571,0.178571 0.10648,0.05324 0.250664,-0.05324 0.357143,0 0.07529,0.03765 0.103279,0.140925 0.178571,0.178572 0.0708,0.0354 0.499208,-0.03651 0.535715,0 0.04209,0.04209 -0.04209,0.136481 0,0.178571 0.04209,0.04209 0.125331,-0.02662 0.178571,0 0.743172,0.371586 -0.190899,-0.01233 0.178572,0.357143 0.04209,0.04209 0.136481,-0.04209 0.178571,0 0.04209,0.04209 -0.04209,0.136482 0,0.178571 0.04209,0.04209 0.125332,-0.02662 0.178571,0 0.743172,0.371586 -0.190899,-0.01233 0.178572,0.357143 0.04209,0.04209 0.136482,-0.04209 0.178571,0 0.04209,0.04209 -0.04209,0.136482 0,0.178572 0.04209,0.04209 0.136482,-0.04209 0.178572,0 0.04209,0.04209 -0.02662,0.125331 0,0.178571 0.107143,0.214286 0.428571,0.321429 0.535714,0.535714 0.02662,0.05324 -0.02662,0.125332 0,0.178572 0.07529,0.150584 0.281851,0.206558 0.357143,0.357143 0.02662,0.05324 0,0.119047 0,0.178571 0.05952,0.05952 0.140925,0.103279 0.178571,0.178571 0.02662,0.05324 -0.02662,0.125332 0,0.178572 0.07529,0.150585 0.303903,0.197424 0.357143,0.357143 0.03765,0.112938 -0.03765,0.244204 0,0.357143 0.02662,0.07986 0.140925,0.103279 0.178572,0.178571 0.02662,0.05324 -0.02662,0.125332 0,0.178571 0.03765,0.07529 0.140925,0.10328 0.178571,0.178572 0.02662,0.05324 0,0.119047 0,0.178571 0.05952,0.05952 0.140925,0.103279 0.178571,0.178572 0.02662,0.05324 -0.02662,0.125331 0,0.178571 0.03765,0.07529 0.151952,0.09871 0.178572,0.178572 0.03765,0.112938 -0.03765,0.244204 0,0.357142 0.05324,0.15972 0.28185,0.206559 0.357143,0.357143 0.05324,0.10648 -0.05324,0.250664 0,0.357143 0.03765,0.07529 0.140925,0.103279 0.178571,0.178572 0.07143,0.142857 -0.07143,0.392857 0,0.535714 0.03765,0.07529 0.140925,0.103279 0.178572,0.178571 0.02717,0.05435 0,0.455294 0,0.535715 0,0.357142 0,0.714285 0,1.071428"
       id="path3005"
       inkscape:connector-curvature="0"
       transform="translate(0,952.36218)" />
    <path
       style="fill:none;stroke:#000000;stroke-width:1px;stroke-linecap:butt;stroke-linejoin:miter;stroke-opacity:1"
       d="M 39.464286,44.464286 C 39.345238,44.22619 38.869048,43.869048 39.107143,43.75 c 0.238095,-0.119048 0.545374,0.902516 0.357143,0.714286 -0.178572,-0.297619 -0.357143,-0.595238 -0.535714,-0.892858 0,-0.05952 0.02662,-0.125331 0,-0.178571 -0.03765,-0.07529 -0.140926,-0.103279 -0.178572,-0.178571 -0.02662,-0.05324 0.04209,-0.136482 0,-0.178572 -0.04209,-0.04209 -0.136482,0.04209 -0.178571,0 -0.08418,-0.08418 0.05324,-0.250663 0,-0.357143 -0.03765,-0.07529 -0.140926,-0.103279 -0.178572,-0.178571 -0.02662,-0.05324 0.04209,-0.136482 0,-0.178572 -0.04209,-0.04209 -0.136482,0.04209 -0.178571,0 -0.08418,-0.08418 0.05324,-0.250663 0,-0.357142 -0.03765,-0.07529 -0.140925,-0.10328 -0.178572,-0.178572 -0.02662,-0.05324 0.04209,-0.136482 0,-0.178571 -0.04209,-0.04209 -0.136481,0.04209 -0.178571,0 -0.08418,-0.08418 0.08418,-0.272964 0,-0.357143 -0.04209,-0.04209 -0.136482,0.04209 -0.178571,0 -0.04209,-0.04209 0.02662,-0.125332 0,-0.178572 -0.03765,-0.07529 -0.140926,-0.103279 -0.178572,-0.178571 -0.02662,-0.05324 0.04209,-0.136482 0,-0.178571 -0.04209,-0.04209 -0.136482,0.04209 -0.178571,0 -0.08418,-0.08418 0.05324,-0.250664 0,-0.357143 -0.592247,-0.592247 0.08418,0.168358 -0.178572,-0.357143 -0.07529,-0.150585 -0.28185,-0.206558 -0.357143,-0.357143 -0.02662,-0.05324 0.02662,-0.125332 0,-0.178571 -0.03765,-0.07529 -0.140925,-0.10328 -0.178571,-0.178572 -0.02662,-0.05324 0.02662,-0.125332 0,-0.178571 C 36.514835,38.922527 36.342308,38.934615 36.25,38.75 c -0.02662,-0.05324 0.04209,-0.136482 0,-0.178572 -0.04209,-0.04209 -0.136482,0.04209 -0.178571,0 -0.04209,-0.04209 0.02662,-0.125331 0,-0.178571 -0.03765,-0.07529 -0.119048,-0.119048 -0.178572,-0.178571 -0.05952,-0.05952 -0.103279,-0.140926 -0.178571,-0.178572 -0.05324,-0.02662 -0.136482,0.04209 -0.178572,0 -0.04209,-0.04209 0.02662,-0.125332 0,-0.178571 -0.03765,-0.07529 -0.140925,-0.103279 -0.178571,-0.178572 -0.02662,-0.05324 0.04209,-0.136481 0,-0.178571 -0.04209,-0.04209 -0.125332,0.02662 -0.178571,0 -0.04741,-0.02371 -0.512008,-0.488302 -0.535715,-0.535714 -0.02662,-0.05324 0.04209,-0.136482 0,-0.178572 -0.04209,-0.04209 -0.136482,0.04209 -0.178571,0 0,-0.47619 0.05952,0.05952 -0.178572,-0.178571 -0.36947,-0.369471 0.5646,0.01444 -0.178571,-0.357143 -0.05324,-0.02662 -0.119048,0 -0.178571,0 -0.05952,-0.05952 -0.10328,-0.140925 -0.178572,-0.178572 -0.106479,-0.05324 -0.272963,0.08418 -0.357143,0 -0.04209,-0.04209 0.04209,-0.136481 0,-0.178571 -0.03651,-0.03651 -0.464912,0.0354 -0.535714,0 -0.07529,-0.03765 -0.103279,-0.140925 -0.178572,-0.178571 -0.112236,-0.05612 -0.602049,0.05612 -0.714285,0 -0.07529,-0.03765 -0.103279,-0.140926 -0.178572,-0.178572 -0.04695,-0.02348 -0.620907,0 -0.714285,0 -0.476191,0 -0.952381,0 -1.428572,0 -0.714286,0 -1.428571,0 -2.142857,0 -0.05952,0 -0.119048,0 -0.178571,0 -0.05952,0 -0.136482,-0.04209 -0.178572,0 -0.04209,0.04209 0.04209,0.136482 0,0.178572 -0.04209,0.04209 -0.125332,-0.02662 -0.178571,0 -0.743172,0.371585 0.190899,-0.01233 -0.178572,0.357142 -0.04209,0.04209 -0.136481,-0.04209 -0.178571,0 -0.04209,0.04209 0.04209,0.136482 0,0.178572 -0.04209,0.04209 -0.136482,-0.04209 -0.178572,0 -0.08418,0.08418 0.05324,0.250663 0,0.357143 -0.03765,0.07529 -0.140925,0.103279 -0.178571,0.178571 -0.02662,0.05324 0.04209,0.136482 0,0.178572 -0.04209,0.04209 -0.136482,-0.04209 -0.178571,0 -0.04209,0.04209 0.02662,0.125331 0,0.178571 -0.03765,0.07529 -0.140926,0.103279 -0.178572,0.178571 -0.05324,0.10648 0.08418,0.272964 0,0.357143 -0.04209,0.04209 -0.136482,-0.04209 -0.178571,0 -0.08418,0.08418 0.08418,0.272964 0,0.357143 -0.04209,0.04209 -0.136482,-0.04209 -0.178572,0 -0.08418,0.08418 0.05324,0.250664 0,0.357143 -0.03765,0.07529 -0.140925,0.103279 -0.178571,0.178571 -0.02662,0.05324 0.02662,0.125332 0,0.178572 -0.03765,0.07529 -0.140925,0.103279 -0.178572,0.178571 -0.09458,0.189163 0.09458,0.167981 0,0.357143 -0.03765,0.07529 -0.140925,0.103279 -0.178571,0.178572 -0.05324,0.106479 0.08418,0.272963 0,0.357142 -0.04209,0.04209 -0.136482,-0.04209 -0.178571,0 -0.08418,0.08418 0.08418,0.272964 0,0.357143 -0.04209,0.04209 -0.136482,-0.04209 -0.178572,0 -0.06268,0.06268 0.06167,0.769512 0,0.892857 -0.03765,0.07529 -0.140925,0.10328 -0.178571,0.178572 -0.07143,0.142857 0.07143,0.392857 0,0.535714 -0.03765,0.07529 -0.140926,0.103279 -0.178572,0.178572 -0.05324,0.106479 0.05324,0.250663 0,0.357142 -0.03765,0.07529 -0.140925,0.10328 -0.178571,0.178572 -0.02662,0.05324 0,0.119047 0,0.178571 0,0.05952 0,0.119048 0,0.178572 0,0.119047 0,0.238095 0,0.357143 0,0.05952 0.02662,0.125331 0,0.178571 -0.03765,0.07529 -0.140925,0.103279 -0.178572,0.178571 -0.07143,0.142858 0.07143,0.392858 0,0.535715 -0.03765,0.07529 -0.140925,0.103279 -0.178571,0.178571 -0.05612,0.112236 0.05612,0.60205 0,0.714286 -0.03765,0.07529 -0.140925,0.103279 -0.178571,0.178571 -0.07143,0.142857 0.07143,0.392857 0,0.535715 -0.03765,0.07529 -0.140926,0.103279 -0.178572,0.178571 -0.05324,0.106479 0.05324,0.250663 0,0.357143 -0.03765,0.07529 -0.140925,0.103279 -0.178571,0.178571 -0.07143,0.142857 0.07143,0.392857 0,0.535715 -0.03765,0.07529 -0.140926,0.103279 -0.178572,0.178571 -0.04844,0.09687 0.04886,0.665425 0,0.714286 -0.04209,0.04209 -0.136481,-0.04209 -0.178571,0 -0.0057,0.0057 0,0.492406 0,0.535714 0,0.05952 0,0.119048 0,0.178571 0,0.05952 0.05952,0.178572 0,0.178572 -0.05952,0 0,-0.119048 0,-0.178572 0,-0.05952 0,-0.119047 0,-0.178571"
       id="path3009"
       inkscape:connector-curvature="0"
       transform="translate(0,952.36218)" />
    <path
       style="fill:none;stroke:#000000;stroke-width:1px;stroke-linecap:butt;stroke-linejoin:miter;stroke-opacity:1"
       d="m 30.178571,68.035714 c 0.510553,-0.324689 0.614291,0.396431 0.892858,0.535715 0.106479,0.05324 0.272963,-0.08418 0.357142,0 0.04209,0.04209 -0.04209,0.136481 0,0.178571 0.04209,0.04209 0.125332,-0.02662 0.178572,0 0.07529,0.03765 0.103279,0.140925 0.178571,0.178571 0.10648,0.05324 0.272964,-0.08418 0.357143,0 0.04209,0.04209 -0.04209,0.136482 0,0.178572 0.04209,0.04209 0.119048,0 0.178572,0 0.297619,0 0.595238,0 0.892857,0 0.05952,0 0.136482,-0.04209 0.178571,0 0.04209,0.04209 -0.04209,0.136482 0,0.178571 0.04209,0.04209 0.119048,0 0.178572,0 0.416666,0 0.833333,0 1.25,0 0.357143,0 0.714285,0 1.071428,0 0.04243,0 0.674263,0.02001 0.714286,0 0.07529,-0.03765 0.103279,-0.140925 0.178571,-0.178571 0.112656,-0.05633 0.780202,0.05633 0.892858,0 0.07529,-0.03765 0.103279,-0.140925 0.178571,-0.178572 0.106479,-0.05324 0.250663,0.05324 0.357143,0 0.07529,-0.03765 0.103279,-0.140925 0.178571,-0.178571 0.0708,-0.0354 0.499208,0.03651 0.535715,0 0.04209,-0.04209 -0.04209,-0.136482 0,-0.178571 0.08418,-0.08418 0.250663,0.05324 0.357142,0 0.07529,-0.03765 0.103279,-0.140926 0.178572,-0.178572 0.106479,-0.05324 0.272963,0.08418 0.357143,0 0.04209,-0.04209 -0.04209,-0.136482 0,-0.178571 0.04209,-0.04209 0.125331,0.02662 0.178571,0 0.07529,-0.03765 0.103279,-0.140926 0.178572,-0.178572 0.05324,-0.02662 0.125331,0.02662 0.178571,0 0.214286,-0.107143 0.321429,-0.428571 0.535714,-0.535714 0.05324,-0.02662 0.125332,0.02662 0.178572,0 0.07529,-0.03765 0.103279,-0.140925 0.178571,-0.178571 0.05324,-0.02662 0.125332,0.02662 0.178572,0 0.817251,-0.408626 -0.757753,0.07401 0.535714,-0.357143 0.05647,-0.01882 0.125332,0.02662 0.178571,0 0.158275,-0.07914 0.373158,-0.427344 0.535715,-0.535715 0.119047,-0.05952 0.238095,-0.119047 0.357142,-0.178571 0.05952,0 0.125332,0.02662 0.178572,0 0.07529,-0.03765 0.10853,-0.131877 0.178571,-0.178572 0.110746,-0.07383 0.246398,-0.104741 0.357143,-0.178571 0.07004,-0.04669 0.119048,-0.119048 0.178572,-0.178571 0.119047,-0.05952 0.246397,-0.104742 0.357142,-0.178572 0.140083,-0.09339 0.21706,-0.263754 0.357143,-0.357143 C 44.761905,65.119048 44.880952,65.059524 45,65 c 0.05952,0 0.125332,0.02662 0.178572,0 0.07529,-0.03765 0.108529,-0.131877 0.178571,-0.178572 0.110745,-0.07383 0.246398,-0.104741 0.357143,-0.178571 0.206044,-0.137363 0.32967,-0.398352 0.535714,-0.535714 0.119048,-0.05952 0.238095,-0.119048 0.357143,-0.178572 0.05952,0 0.125332,0.02662 0.178571,0 0.09537,-0.04769 0.441703,-0.441702 0.535715,-0.535714 0.139479,-0.13948 0.381625,-0.432988 0.535714,-0.535714 0.110745,-0.07383 0.246398,-0.104741 0.357143,-0.178572 0.04906,-0.03271 0.52317,-0.49808 0.535714,-0.535714 0.03765,-0.112938 -0.06604,-0.258089 0,-0.357143 0.07383,-0.110745 0.246398,-0.104741 0.357143,-0.178571 0.07004,-0.04669 0.119048,-0.119048 0.178571,-0.178572 0.05952,-0.05952 0.131878,-0.10853 0.178572,-0.178571 0.14766,-0.221491 0.209482,-0.492795 0.357143,-0.714286 C 49.868123,60.465673 49.940476,60.416667 50,60.357143 50.178572,60.178571 50.357143,60 50.535714,59.821428 50.654762,59.702381 50.799469,59.604369 50.892857,59.464286 51.040518,59.242795 51.10234,58.971491 51.25,58.75 c 0.273496,-0.410244 0.102,0.07657 0.535714,-0.357143 0.09412,-0.09412 0.104742,-0.246398 0.178572,-0.357143 0.04669,-0.07004 0.119047,-0.119047 0.178571,-0.178571 0.05952,-0.05952 0.119048,-0.119048 0.178572,-0.178572 0.05952,-0.119047 0.08446,-0.263027 0.178571,-0.357143 0.09412,-0.09411 0.263028,-0.08446 0.357143,-0.178571 0.09412,-0.09412 0.104741,-0.246398 0.178571,-0.357143 0.09339,-0.140083 0.263755,-0.21706 0.357143,-0.357143 0.07383,-0.110745 0.08446,-0.263027 0.178572,-0.357143 0.09411,-0.09411 0.263027,-0.08446 0.357143,-0.178571 0.09411,-0.09412 0.104741,-0.246398 0.178571,-0.357143 0.09339,-0.140083 0.263754,-0.21706 0.357143,-0.357143 0.14766,-0.22149 0.209482,-0.492795 0.357143,-0.714285 0.09339,-0.140083 0.263754,-0.21706 0.357143,-0.357143 0.07383,-0.110746 0.104741,-0.246398 0.178571,-0.357143 0.04669,-0.07004 0.131877,-0.10853 0.178571,-0.178572 0.07383,-0.110745 0.104742,-0.246397 0.178572,-0.357142 0.04669,-0.07004 0.151951,-0.09871 0.178571,-0.178572 0.03765,-0.112938 -0.03765,-0.244204 0,-0.357143 0.05324,-0.159719 0.303903,-0.197423 0.357143,-0.357143 0.03765,-0.112938 -0.03765,-0.244204 0,-0.357142 0.05324,-0.15972 0.281851,-0.206559 0.357143,-0.357143 0.02662,-0.05324 -0.02662,-0.125332 0,-0.178572 0.592247,-0.592247 -0.08418,0.168359 0.178571,-0.357143 0.03765,-0.07529 0.140926,-0.103279 0.178572,-0.178571 0.02662,-0.05324 -0.02662,-0.125332 0,-0.178571 0.03765,-0.07529 0.140925,-0.103279 0.178571,-0.178572 0.02662,-0.05324 -0.04209,-0.136482 0,-0.178571 0.04209,-0.04209 0.136482,0.04209 0.178572,0 0.04209,-0.04209 -0.02662,-0.125332 0,-0.178572 0.07529,-0.150584 0.28185,-0.206558 0.357143,-0.357143 0.05324,-0.106479 -0.08418,-0.272963 0,-0.357142 0.04209,-0.04209 0.136481,0.04209 0.178571,0 0.08418,-0.08418 -0.08418,-0.272964 0,-0.357143 0.04209,-0.04209 0.136482,0.04209 0.178571,0 0.04209,-0.04209 0,-0.238095 0,-0.178572 0,1.011905 -0.119047,0.05952 0.178572,0.357143 0.04886,0.04886 -0.04844,0.617413 0,0.714286 0.03765,0.07529 0.140925,0.103279 0.178571,0.178571 0.02717,0.05435 0,0.455294 0,0.535715 0,0.357142 0,0.714285 0,1.071428 0,1.369048 0,2.738095 0,4.107143 0,1.130952 0,2.261905 0,3.392857 0,0.297619 0,0.595238 0,0.892857 0,0.05952 0,0.119048 0,0.178572 0,0.05952 -0.02662,0.125331 0,0.178571 0.03765,0.07529 0.140926,0.103279 0.178572,0.178572 0.03229,0.06458 0,0.768653 0,0.892857 0,0.773809 0,1.547619 0,2.321428 0,0.416667 0,0.833334 0,1.25 0,0.08042 0.02717,0.481369 0,0.535715 -0.03765,0.07529 -0.140926,0.103279 -0.178572,0.178571 -0.07143,0.142857 0.07143,0.392857 0,0.535714 -0.03765,0.07529 -0.140925,0.103279 -0.178571,0.178572 -0.07143,0.142857 0.07143,0.392857 0,0.535714 -0.03765,0.07529 -0.140925,0.103279 -0.178572,0.178572 -0.02662,0.05324 0.02662,0.125331 0,0.178571 -0.03765,0.07529 -0.140925,0.103279 -0.178571,0.178571 -0.02662,0.05324 0.02662,0.125332 0,0.178572 -0.03765,0.07529 -0.140925,0.103279 -0.178571,0.178571 -0.09412,0.188236 0.09412,0.168908 0,0.357143 -0.03765,0.07529 -0.140926,0.103279 -0.178572,0.178572 -0.05324,0.106479 0.05324,0.250663 0,0.357142 -0.07529,0.150585 -0.28185,0.206559 -0.357143,0.357143 -0.262751,0.525502 0.413676,-0.235104 -0.178571,0.357143 -0.05952,0.05952 -0.119048,0.119048 -0.178572,0.178572 -0.05952,0.05952 -0.140925,0.103279 -0.178571,0.178571 -0.02662,0.05324 0,0.119048 0,0.178571 -0.05952,0.119048 -0.104741,0.246398 -0.178571,0.357143 -0.07821,0.117317 -0.503498,0.439065 -0.535715,0.535715 -0.03765,0.112938 0.05324,0.250663 0,0.357142 -0.142775,0.28555 -0.535797,0.446553 -0.714285,0.714286 -0.147661,0.221491 -0.209483,0.492795 -0.357143,0.714286 -0.09339,0.140083 -0.263755,0.21706 -0.357143,0.357143 -0.647374,1.294746 0.188231,-0.282347 -0.357143,0.535714 -0.270169,0.405253 -0.08697,0.309032 -0.357143,0.714286 -0.04669,0.07004 -0.131877,0.10853 -0.178571,0.178571 -0.07383,0.110745 -0.104742,0.246398 -0.178572,0.357143 -0.04669,0.07004 -0.131877,0.10853 -0.178571,0.178571 -0.647374,1.294747 0.188231,-0.282346 -0.357143,0.535715 -0.270169,0.405253 -0.08697,0.309032 -0.357143,0.714285 -0.04669,0.07004 -0.131877,0.10853 -0.178571,0.178572 -0.07383,0.110745 -0.104742,0.246397 -0.178572,0.357143 -0.04669,0.07004 -0.131877,0.10853 -0.178571,0.178571 -0.07383,0.110745 -0.08446,0.263028 -0.178572,0.357143 -0.09412,0.09412 -0.283312,0.06783 -0.357142,0.178571 -0.06604,0.09905 0.06603,0.25809 0,0.357143 -0.07383,0.110746 -0.263028,0.08446 -0.357143,0.178572 -0.01144,0.01144 -0.334968,0.681023 -0.357143,0.714285 -0.04669,0.07004 -0.119048,0.119048 -0.178572,0.178572 -0.05952,0.119047 -0.104741,0.246397 -0.178571,0.357143 -0.04669,0.07004 -0.131877,0.10853 -0.178571,0.178571 C 50.104741,79.753602 50.07383,79.889255 50,80 c -0.04669,0.07004 -0.119048,0.119048 -0.178571,0.178571 -0.178572,0.178572 -0.357143,0.357143 -0.535715,0.535715 -0.05952,0.05952 -0.140925,0.103279 -0.178571,0.178571 -0.02662,0.05324 0.02662,0.125332 0,0.178572 -0.07529,0.150584 -0.281851,0.206558 -0.357143,0.357142 -0.02662,0.05324 0.04209,0.136482 0,0.178572 -0.04209,0.04209 -0.119048,0 -0.178571,0 0,0.05952 0.04209,0.136482 0,0.178571 -0.08418,0.08418 -0.272964,-0.08418 -0.357143,0 -0.04209,0.04209 0.04209,0.136482 0,0.178572 -0.0057,0.0057 -0.492406,0 -0.535714,0 -0.357143,0 -0.714286,0 -1.071429,0 -0.05952,0 -0.119048,0 -0.178571,0 -0.05952,0 -0.125332,0.02662 -0.178572,0 -0.07529,-0.03765 -0.103279,-0.140926 -0.178571,-0.178572 -0.112656,-0.05633 -0.780202,0.05633 -0.892857,0 -0.07529,-0.03765 -0.10328,-0.140925 -0.178572,-0.178571 -0.106479,-0.05324 -0.244204,0.03765 -0.357143,0 -0.126269,-0.04209 -0.230874,-0.136482 -0.357143,-0.178572 -0.748514,-0.249505 0.391372,0.249505 -0.357142,0 -0.12627,-0.04209 -0.230874,-0.136481 -0.357143,-0.178571 -0.112939,-0.03765 -0.250664,0.05324 -0.357143,0 -0.07529,-0.03765 -0.09871,-0.151952 -0.178572,-0.178571 -0.112938,-0.03765 -0.241649,0.02887 -0.357142,0 -0.129126,-0.03228 -0.230874,-0.136482 -0.357143,-0.178572 -0.05647,-0.01882 -0.122103,0.01882 -0.178572,0 -0.126269,-0.04209 -0.230874,-0.136482 -0.357143,-0.178571 -0.05647,-0.01882 -0.125331,0.02662 -0.178571,0 -0.07529,-0.03765 -0.09871,-0.151952 -0.178571,-0.178572 -0.112939,-0.03765 -0.24165,0.02887 -0.357143,0 -0.323204,0.10763 -0.332112,-0.289275 -0.535715,-0.357143 -0.112938,-0.03765 -0.241649,0.02887 -0.357142,0 C 40.049446,80.14629 39.950554,80.032281 39.821429,80 c -0.115493,-0.02887 -0.24165,0.02887 -0.357143,0 -0.129125,-0.03228 -0.230874,-0.136482 -0.357143,-0.178571 -0.05647,-0.01882 -0.122102,0.01882 -0.178571,0 -0.12627,-0.04209 -0.228018,-0.146291 -0.357143,-0.178572 -0.115494,-0.02887 -0.244205,0.03765 -0.357143,0 -0.07986,-0.02662 -0.09871,-0.151951 -0.178572,-0.178571 -0.112938,-0.03765 -0.241649,0.02887 -0.357142,0 -0.129126,-0.03228 -0.230874,-0.136482 -0.357143,-0.178572 -0.05647,-0.01882 -0.122103,0.01882 -0.178572,0 -0.126269,-0.04209 -0.230874,-0.136481 -0.357143,-0.178571 -0.05647,-0.01882 -0.122102,0.01882 -0.178571,0 -0.126269,-0.04209 -0.228018,-0.14629 -0.357143,-0.178572 -0.115493,-0.02887 -0.244204,0.03765 -0.357143,0 -0.07986,-0.02662 -0.103279,-0.140925 -0.178571,-0.178571 -0.05324,-0.02662 -0.125332,0.02662 -0.178572,0 -0.07529,-0.03765 -0.103279,-0.140925 -0.178571,-0.178571 -0.05324,-0.02662 -0.125332,0.02662 -0.178571,0 -0.07529,-0.03765 -0.10328,-0.140926 -0.178572,-0.178572 -0.05324,-0.02662 -0.119048,0 -0.178571,0 -0.05952,-0.05952 -0.103279,-0.140925 -0.178572,-0.178571 -0.05324,-0.02662 -0.136482,0.04209 -0.178571,0 -0.04209,-0.04209 0.04209,-0.136482 0,-0.178572 -0.04209,-0.04209 -0.136482,0.04209 -0.178572,0 -0.04209,-0.04209 0.04209,-0.136482 0,-0.178571 -0.04209,-0.04209 -0.136481,0.04209 -0.178571,0 -0.04209,-0.04209 0.04209,-0.136482 0,-0.178572 -0.04209,-0.04209 -0.136482,0.04209 -0.178571,0 -0.04209,-0.04209 0.04209,-0.136481 0,-0.178571 -0.04209,-0.04209 -0.136482,0.04209 -0.178572,0 0,-0.476191 0.05952,0.05952 -0.178571,-0.178571 -0.08418,-0.08418 0.08418,-0.272964 0,-0.357143 -0.04209,-0.04209 -0.136482,0.04209 -0.178572,0 -0.04209,-0.04209 0.02662,-0.125332 0,-0.178572 -0.03765,-0.07529 -0.140925,-0.103279 -0.178571,-0.178571 -0.02662,-0.05324 0.02662,-0.125332 0,-0.178572 -0.03765,-0.07529 -0.140925,-0.103279 -0.178572,-0.178571 -0.02662,-0.05324 0.02662,-0.125332 0,-0.178571 -0.03765,-0.07529 -0.140925,-0.10328 -0.178571,-0.178572 -0.05324,-0.106479 0.05324,-0.250663 0,-0.357143 -0.03765,-0.07529 -0.140925,-0.103279 -0.178572,-0.178571 -0.0354,-0.0708 0.03651,-0.499208 0,-0.535714 -0.04209,-0.04209 -0.136481,0.04209 -0.178571,0 -0.04209,-0.04209 0,-0.119048 0,-0.178572 0,-0.47619 0,-0.952381 0,-1.428571 0,-0.05952 0,-0.119048 0,-0.178572 0,-0.05952 0.04209,-0.136482 0,-0.178571 -0.04209,-0.04209 -0.136482,0.04209 -0.178571,0 -0.04209,-0.04209 0,-0.119048 0,-0.178572 0,-0.126571 0.02308,-1.025258 0,-1.071428 -0.03765,-0.07529 -0.140926,-0.103279 -0.178572,-0.178572 -0.05612,-0.112236 0.05612,-0.602049 0,-0.714285 -0.220661,-0.441323 -0.178571,0.06164 -0.178571,-0.357143 0,-0.09338 0.02348,-0.667332 0,-0.714286 -0.03765,-0.07529 -0.140925,-0.103279 -0.178572,-0.178571 -0.03229,-0.06458 0,-0.768654 0,-0.892857 0,-0.238096 0,-0.476191 0,-0.714286 0,-0.05952 0,-0.119048 0,-0.178572 0,-0.05952 -0.05952,-0.178571 0,-0.178571 0.05952,0 0,0.119048 0,0.178571"
       id="path3011"
       inkscape:connector-curvature="0"
       transform="translate(0,952.36218)" />
  </g>
</svg>
