<?xml version="1.0" encoding="UTF-8" standalone="no"?>
<!-- Created with Inkscape (http://www.inkscape.org/) -->

<svg
   xmlns:dc="http://purl.org/dc/elements/1.1/"
   xmlns:cc="http://creativecommons.org/ns#"
   xmlns:rdf="http://www.w3.org/1999/02/22-rdf-syntax-ns#"
   xmlns:svg="http://www.w3.org/2000/svg"
   xmlns="http://www.w3.org/2000/svg"
   xmlns:sodipodi="http://sodipodi.sourceforge.net/DTD/sodipodi-0.dtd"
   xmlns:inkscape="http://www.inkscape.org/namespaces/inkscape"
   width="48px"
   height="48px"
   id="svg3110"
   version="1.1"
   inkscape:version="0.48.4 r9939"
   sodipodi:docname="profileicon.svg"
   inkscape:export-filename="/home/zeien/Viking/FB_markup/prep_facebook_pages/images/profileicon.png"
   inkscape:export-xdpi="300"
   inkscape:export-ydpi="300">
  <defs
     id="defs3112" />
  <sodipodi:namedview
     id="base"
     pagecolor="#ffffff"
     bordercolor="#666666"
     borderopacity="1.0"
     inkscape:pageopacity="0.0"
     inkscape:pageshadow="2"
     inkscape:zoom="7"
     inkscape:cx="31.303677"
     inkscape:cy="23.285714"
     inkscape:current-layer="layer1"
     showgrid="true"
     inkscape:grid-bbox="true"
     inkscape:document-units="px"
     inkscape:window-width="927"
     inkscape:window-height="1028"
     inkscape:window-x="75"
     inkscape:window-y="24"
     inkscape:window-maximized="0" />
  <metadata
     id="metadata3115">
    <rdf:RDF>
      <cc:Work
         rdf:about="">
        <dc:format>image/svg+xml</dc:format>
        <dc:type
           rdf:resource="http://purl.org/dc/dcmitype/StillImage" />
        <dc:title></dc:title>
      </cc:Work>
    </rdf:RDF>
  </metadata>
  <g
     inkscape:groupmode="layer"
     id="layer2"
     inkscape:label="background">
    <rect
       style="fill:#ffffff;fill-opacity:1;stroke:#ffffff;stroke-width:0.5;stroke-linejoin:round;stroke-miterlimit:4;stroke-dasharray:none"
       id="rect3809"
       width="48"
       height="48.285713"
       x="0.14285715"
       y="0.14285715" />
  </g>
  <g
     id="layer1"
     inkscape:label="Layer 1"
     inkscape:groupmode="layer">
    <path
       style="fill:none;stroke:#000000;stroke-width:1.40258741px;stroke-linecap:butt;stroke-linejoin:miter;stroke-opacity:1"
       d="m 7.5084433,4.2623937 c -0.08448,0.04225 -0.09083,0.176912 -0.175323,0.219154 -0.05974,0.02988 -0.152368,0 -0.219155,0 l -0.175323,0 c -0.09448,0 -0.9990279,-0.0091 -1.0081099,0 -0.04723,0.04722 0,0.108537 0,0.175324 l 7.8018936,1.621741 c 1.166709,-1.20531 -1.086896,-0.73625 -1.183434,-0.832786 -0.04722,-0.04722 0.04723,-0.128097 0,-0.175323 -0.04722,-0.04722 -0.159416,0.02988 -0.219155,0 -0.08448,-0.04225 -0.134666,-0.176913 -0.219154,-0.219155 -0.05974,-0.02987 -0.128097,0.04723 -0.175323,0 -0.04723,-0.04722 0.04722,-0.128095 0,-0.175323 -0.04097,-0.04097 -0.534187,0.03972 -0.613632,0 -0.08448,-0.04225 -0.09084,-0.176913 -0.175324,-0.219154 -0.07944,-0.03972 -0.572669,0.04097 -0.613632,0 -0.04723,-0.04723 0.04722,-0.128096 0,-0.175324 -0.04822,-0.04822 -0.7407397,0.04822 -0.7889547,0 -0.04723,-0.04722 0.04722,-0.171926 0,-0.219154 -0.04723,-0.04723 -0.152367,0 -0.219154,0 l -0.219155,0 -1.183433,0 c -0.09024,0 -0.552653,-0.03049 -0.613632,0 z m 14.4203527,0.394478 c -0.04723,0.04723 0,0.152363 0,0.219154 0.09445,-0.09445 0.343854,0.09445 0.438308,0 0.04723,-0.04723 -0.04723,-0.171929 0,-0.219154 -0.200985,-6.82e-4 -0.434363,-0.004 -0.438308,0 z m 0,0.219154 -0.48214,0.394478 c 0.179557,-0.0545 0.359155,-0.120767 0.48214,-0.219155 0.05215,-0.04172 -0.04723,-0.128098 0,-0.175323 z m -0.48214,0.394478 c -0.04244,0.01288 -0.09088,0.03022 -0.131492,0.04383 0.19901,-0.160047 0.338422,-0.348857 0.219154,-0.438308 -0.225457,-0.169092 -0.326523,0.293841 -0.482139,0.613632 -0.133982,0.10656 -0.206124,0.175323 -0.08766,0.175323 l 0.482139,-0.394477 z m -0.482139,0.394477 c 0,1.319796 1.057007,-0.155944 1.183433,-0.219154 0.05974,-0.02987 0.159416,0.02988 0.219154,0 l 7.933386,0.788955 c -0.09594,-0.06638 0.192076,-0.202401 0.04383,-0.350646 -0.100185,-0.100187 -0.469616,0.100186 -0.569801,0 -0.04723,-0.04723 0.04723,-0.17193 0,-0.219155 -0.09445,-0.09445 -0.300024,0.09445 -0.394478,0 -0.04723,-0.04723 0.04723,-0.171929 0,-0.219154 -0.09445,-0.09445 -0.318832,0.05974 -0.438309,0 -0.08448,-0.04224 -0.09084,-0.133077 -0.175323,-0.175323 -0.108698,-0.05435 -0.73413,0.05483 -0.788955,0 -0.04723,-0.04723 0.04723,-0.17193 0,-0.219155 -0.0064,-0.0065 -0.565037,0 -0.613632,0 l -3.418808,0 c -0.0486,0 -0.607194,-0.0065 -0.613632,0 -0.04723,0.04723 0.04723,0.17193 0,0.219155 -0.07779,0.07779 -0.196459,-0.03132 -0.350646,-0.131493 0.0024,-0.04419 -0.01044,-0.08766 -0.04383,-0.08766 -0.02361,0 -0.02722,0.02835 -0.04383,0.04383 -0.273569,-0.181562 -0.527931,-0.321153 -0.525971,0.219154 l -1.402587,0.350647 z m 2.366866,-1.008109 c 0.06679,0 0.219155,0.06679 0.219155,0 0,-0.06679 -0.152365,0 -0.219155,0 z m -10.475574,0.219154 c -0.01326,0.124188 0.759732,0.628243 0.876617,0.394478 l 0.175323,0.04383 c 0.0047,-0.02197 0.04383,-0.02379 0.04383,-0.04383 l -0.262985,-0.08766 c -0.0499,-0.176531 -0.513323,-0.190913 -0.745125,-0.306816 -0.03734,0 -0.08577,-0.01774 -0.08766,0 z m 1.05194,0.482139 c -0.0059,0.03584 0.02022,0.06405 0.04383,0.08766 0.01713,0.01713 0.122076,0.0049 0.219154,0 l -0.262985,-0.08766 z m 0.262985,0.08766 1.753235,0.832786 c -0.04722,-0.04723 0.04723,-0.171929 0,-0.219154 -0.04723,-0.04722 -0.115588,0.02988 -0.175324,0 -0.08449,-0.04224 -0.134676,-0.133077 -0.219154,-0.175323 -0.05974,-0.02988 -0.128098,0.04722 -0.175323,0 -0.04723,-0.04723 0.04723,-0.17193 0,-0.219155 -0.09445,-0.09445 -0.318837,0.05974 -0.438309,0 -0.08449,-0.04224 -0.09085,-0.176908 -0.175323,-0.219154 -0.07473,-0.03737 -0.35623,-0.01079 -0.569802,0 z m 1.753235,0.832786 0.262985,0.131493 c 0.01044,-0.03131 0.02296,-0.0647 -0.04383,-0.131493 -0.04723,-0.04723 -0.171929,0.04722 -0.219154,0 z m 0.262985,0.131493 c -0.03131,0.09392 -0.269248,0.04383 0.131492,0.04383 l -0.131492,-0.04383 z m 10.387913,1.446418 c -0.08448,0.04224 -0.134671,0.176909 -0.219154,0.219155 -0.108698,0.05435 -0.73413,-0.05483 -0.788956,0 -0.04723,0.04723 0.04723,0.128098 0,0.175323 -0.04723,0.04722 -0.152364,0 -0.219154,0 l -0.175324,0 c -0.40951,0 -1.155818,-0.02762 -1.402587,0.219154 -0.18891,0.188911 0.788955,0.267159 0.788955,0 l 3.594131,0 c -0.08448,-0.04224 -0.09084,-0.176908 -0.175324,-0.219154 -0.05974,-0.02988 -0.171926,0.04722 -0.219154,0 -0.04723,-0.04723 0.04723,-0.128098 0,-0.175323 -0.04723,-0.04723 -0.152364,0 -0.219154,0 l -0.175324,0 -0.219154,0 c -0.06679,0 -0.128095,0.04723 -0.175323,0 -0.04723,-0.04723 0.04723,-0.17193 0,-0.219155 -0.04723,-0.04723 -0.152365,0 -0.219155,0 -0.06679,0 -0.115584,-0.02988 -0.175323,0 z m 2.191543,0.613632 c 0.04723,0.04723 -0.04723,0.171927 0,0.219155 0.04723,0.04722 0.175323,0.06679 0.175323,0 0,-0.09445 -0.108533,-0.152368 -0.175323,-0.219155 z M 9.5246633,8.8646317 c -0.08448,0.04225 -0.134667,0.176913 -0.219155,0.219154 -0.07944,0.03972 -0.528837,-0.04097 -0.569801,0 -0.04723,0.04722 0.04723,0.128096 0,0.175324 -0.100187,0.100186 -0.513446,-0.100187 -0.613632,0 -0.04723,0.04723 0.04723,0.171926 0,0.219154 -0.09445,0.09445 -0.300023,-0.09445 -0.394478,0 -0.04723,0.04722 0.04723,0.128095 0,0.175323 l 3.9009467,-0.482139 c -0.05427,-0.01252 -0.08766,-0.02087 -0.08766,-0.08766 0,-0.180206 0.422114,-0.05801 0.657463,0 0.113559,0.02799 0.192978,0.06148 0.131492,0 -0.268731,-0.268731 -1.706619,-0.219154 -2.191542,-0.219154 -0.09024,0 -0.5526537,-0.03049 -0.6136317,0 z m 2.6736817,0.219154 -0.569801,0.08766 c 0.134147,0.03096 0.369739,-0.0527 0.569801,-0.08766 z m -4.6899017,0.569801 c -0.0079,0.0079 0.0013,0.03324 0,0.04383 0.04551,-0.0053 0.09031,-0.04545 0.131493,-0.04383 -0.03829,-0.01181 -0.10788,-0.02361 -0.131493,0 z m 0,0.04383 c -0.102988,0.01189 -0.175323,0.03145 -0.175323,0.175324 0,0.06679 0.128098,0.04723 0.175323,0 0.03935,-0.03936 -0.0066,-0.122383 0,-0.175324 z M 21.446656,15.833736 c -0.03829,0 -0.06405,0.02022 -0.08766,0.04383 -0.04722,0.04723 0.04723,0.171929 0,0.219154 -0.04723,0.04723 -0.159418,-0.02987 -0.219154,0 -0.08449,0.04224 -0.09085,0.133078 -0.175323,0.175324 -0.05974,0.02987 -0.152363,0 -0.219155,0 0,0.06679 0.04722,0.171929 0,0.219154 -0.04723,0.04722 -0.171929,-0.04723 -0.219154,0 -0.04722,0.04723 0.04723,0.128098 0,0.175324 -0.04723,0.04722 -0.128098,-0.04723 -0.175323,0 -0.04723,0.04723 0.04722,0.171929 0,0.219154 -0.04723,0.04723 -0.171929,-0.04723 -0.219155,0 -0.04722,0.04723 0.04723,0.171929 0,0.219154 -0.04723,0.04723 -0.128098,-0.04723 -0.175323,0 -0.04722,0.04723 0.04723,0.128098 0,0.175324 -0.04723,0.04723 -0.171929,-0.04723 -0.219154,0 -0.085,0.08501 0.0391,0.246625 0,0.350646 l 1.008109,-0.131492 c 0.534319,0 -0.048,0.048 0.219155,-0.219154 0.04723,-0.04723 0.128098,0.04723 0.175323,0 0.04722,-0.04723 -0.04722,-0.128099 0,-0.175324 0.09445,-0.09445 0.300028,0.09445 0.394478,0 0.04723,-0.04723 -0.04722,-0.171929 0,-0.219154 0.04723,-0.04723 0.171929,0.04723 0.219154,0 0.02826,-0.02826 0.02055,-0.572536 0,-0.613632 -0.04224,-0.08449 -0.176908,-0.09085 -0.219154,-0.175324 -0.02987,-0.05974 0.04723,-0.171929 0,-0.219154 -0.02361,-0.02361 -0.04938,-0.04383 -0.08766,-0.04383 z m -1.709403,1.797065 -0.175323,0.04383 c 0.0167,0.05009 0.04174,0.133581 0.175323,0 0.0094,-0.0094 -0.0043,-0.03227 0,-0.04383 z m -0.175323,0.04383 -0.832787,0.08766 c -0.01049,0.04887 -0.03148,0.100007 0,0.131493 0,-0.06679 0.219155,-0.06679 0.219155,0 0.221025,0.0073 0.578985,0.03464 0.613632,0 0,-0.26716 -0.0167,-0.269247 0,-0.219155 z m -0.613632,0.219155 c -0.08501,-0.0028 -0.219155,-0.01265 -0.219155,0 0,0.06679 0.219155,0.06679 0.219155,0 z m -0.219155,-0.131493 c 0.02099,-0.09775 0.06297,-0.200019 0,-0.262985 -0.04723,-0.04723 -0.128098,0.04723 -0.175323,0 -0.04723,-0.04723 0.04723,-0.171929 0,-0.219154 -0.04723,-0.04723 -0.171929,0.04723 -0.219154,0 -0.09445,-0.09446 0.09445,-0.300028 0,-0.394478 -0.04723,-0.04723 -0.128099,0.04723 -0.175324,0 -0.04723,-0.04723 0.04722,-0.171929 0,-0.219154 -0.04723,-0.04723 -0.171929,0.04722 -0.219154,0 -0.04723,-0.04723 0.04722,-0.128099 0,-0.175324 -0.04723,-0.04723 -0.171929,0.04722 -0.219154,0 -0.04723,-0.04723 0.04722,-0.171929 0,-0.219154 -0.04723,-0.04723 -0.115588,0.02987 -0.175324,0 -0.08449,-0.04224 -0.134676,-0.133078 -0.219154,-0.175324 -0.119477,-0.05974 -0.300028,0.09445 -0.394478,0 -0.04723,-0.04723 0.04723,-0.171929 0,-0.219154 -0.0081,-0.008 -0.715375,0 -0.788955,0 -0.07358,0 -0.780961,-0.008 -0.788955,0 -0.04723,0.04723 0.04723,0.171929 0,0.219154 -0.04723,0.04723 -0.17193,-0.04722 -0.219155,0 -0.008,0.0081 0,0.715376 0,0.788956 0,0.06679 -0.04722,0.171929 0,0.219154 0.267161,0.267161 0.219155,-0.358996 0.219155,0.175324 0.04723,0.04723 0.128098,-0.04723 0.175323,0 0.04722,0.04723 -0.05215,0.177427 0,0.219154 0.08616,0.06893 0.207699,0.08034 0.306816,0.131492 -0.03641,0.0019 -0.07096,0.01044 -0.08766,0.04383 -0.133579,0.267157 0.521795,0.260896 0.788955,0.394478 l 2.191543,-0.306816 z m 2.235374,4.733733 c -0.04722,0.04723 0.04723,0.171929 0,0.219154 -0.04723,0.04723 -0.152363,0 -0.219154,0 -0.09447,0 -0.998993,-0.0091 -1.00811,0 -0.133581,0.13358 -0.05009,0.158626 0,0.175323 l 4.426917,0.175324 c -0.0066,-0.05294 0.03935,-0.13597 0,-0.175324 -0.100186,-0.100186 -0.513446,0.100187 -0.613632,0 -0.04722,-0.04723 0.04722,-0.128098 0,-0.175323 -0.09445,-0.09445 -0.300028,0.09445 -0.394478,0 -0.04723,-0.04723 0.04722,-0.171929 0,-0.219154 -0.04723,-0.04723 -0.152363,0 -0.219154,0 l -0.175324,0 -1.621742,0 c -0.06679,0 -0.128098,-0.04723 -0.175323,0 z m 3.199653,0.569801 c 0.0013,0.01059 -0.0079,0.03596 0,0.04383 0.0091,0.0091 0.913637,0 1.008109,0 l -1.008109,-0.04383 z m -9.73045,-0.394478 c -0.167786,-0.0082 -0.318407,0.01109 -0.48214,0.04383 -0.06549,0.0131 0.04722,0.128098 0,0.175323 -0.04723,0.04723 -0.152363,0 -0.219154,0 l -0.219154,0 c -0.469901,0 0.100717,-0.02844 -0.394478,0.219155 -0.119478,0.05974 -0.300028,-0.09445 -0.394478,0 -0.04723,0.04723 0.04722,0.128098 0,0.175323 0.04821,-0.04822 0.740735,0.04822 0.788956,0 0.04723,-0.04723 -0.04723,-0.128098 0,-0.175323 0.09446,-0.09445 0.311584,0.04225 0.438308,0 0.06085,-0.02029 0.11647,-0.05897 0.175324,-0.08766 -0.02037,0.02922 -0.0167,0.05427 0,0.08766 0.133579,0.267159 0.521796,-0.260896 0.788955,-0.394478 0.149348,0 -0.05241,0.02087 -0.306816,0.08766 0.103271,-0.04153 0.195192,-0.08766 0.306816,-0.08766 -0.166975,0 -0.314354,-0.03565 -0.482139,-0.04383 z m 0.482139,0.04383 1.621741,0.04383 c 0.0015,-0.01731 0.01181,-0.03202 0,-0.04383 -0.0064,-0.0065 -0.565032,0 -0.613631,0 l -1.00811,0 z m 1.621741,0.04383 c -0.0044,0.05193 -0.03542,0.09607 0,0.131492 0.09445,0.09445 0.300022,-0.09445 0.394478,0 0.04723,0.04723 -0.04723,0.171927 0,0.219155 0.100187,0.100186 0.513447,-0.100187 0.613632,0 0.04723,0.04723 -0.04722,0.128095 0,0.175323 0.04723,0.04723 0.108537,0 0.175324,0 0.139361,0 0.935649,0.03623 1.008109,0 0.08448,-0.04225 0.134667,-0.133082 0.219155,-0.175323 0.05974,-0.02988 0.128095,0.04723 0.175323,0 0.04722,-0.04723 -0.04723,-0.171927 0,-0.219155 L 16.5376,22.759009 z m -3.813284,0.52597 c -0.04723,0.04723 -0.128098,-0.04722 -0.175324,0 -0.04722,0.04723 0.04723,0.171929 0,0.219154 0.06679,0 0.128099,0.04723 0.175324,0 0.04722,-0.04723 -0.04723,-0.171929 0,-0.219154 z m 12.754779,-0.219154 c -0.04174,0.0083 -0.0981,0.04383 -0.131492,0.04383 0.06679,0 0.219154,0.06679 0.219154,0 0,-0.0334 -0.04592,-0.05218 -0.08766,-0.04383 z M 21.62198,24.86289 c -0.03584,-0.0059 -0.06405,0.02022 -0.08766,0.04383 l 0.219154,0 c -0.03339,0 -0.09565,-0.03793 -0.131493,-0.04383 z m 0.131492,0.04383 c 0.03339,0 0.08975,-0.0083 0.131493,0 -0.0407,-0.0094 -0.0814,0 -0.131493,0 z m -0.219154,0 -5.215872,0.175323 c 0.241471,0.06037 0.741603,-0.0015 0.788956,0.175324 l 0.219154,0.04383 c 0,0.06679 -0.04722,0.171928 0,0.219155 0.04723,0.04723 0.152367,0 0.219154,0 l 0.175324,0 2.235373,0 c 0.09024,0 0.508822,0.03049 0.569801,0 0.08448,-0.04225 0.134667,-0.176913 0.219155,-0.219155 0.119472,-0.05974 0.300021,0.09445 0.394477,0 0.04722,-0.04722 -0.04722,-0.171926 0,-0.219154 0.09445,-0.09445 0.300022,0.09445 0.394478,0 0.04723,-0.04722 -0.04722,-0.128095 0,-0.175323 z m -4.426916,0.350647 -0.788956,-0.175324 c -0.275381,0 0.765995,0.486314 0.832786,0.219154 0.0064,-0.02569 -0.03879,-0.02502 -0.04383,-0.04383 z"
       id="path3170"
       inkscape:connector-curvature="0" />
    <path
       style="fill:none;stroke:#000000;stroke-width:1px;stroke-linecap:butt;stroke-linejoin:miter;stroke-opacity:1"
       d="m 45.714286,22 c 0.14923,0.489201 -0.435069,0.441565 -0.571429,0.714286 -0.0213,0.04259 0.02641,0.103235 0,0.142857 -0.07471,0.112066 -0.204902,0.177965 -0.285714,0.285714 -0.188572,0.251429 -0.24,0.605714 -0.428572,0.857143 -0.08081,0.10775 -0.201576,0.180541 -0.285714,0.285714 -0.107256,0.13407 -0.190476,0.285715 -0.285714,0.428572 -0.226119,0.339179 -0.448492,0.689907 -0.714286,1 -0.13148,0.153393 -0.297092,0.275178 -0.428571,0.428571 -0.154951,0.180776 -0.271785,0.392244 -0.428572,0.571429 -0.177384,0.202724 -0.406049,0.358797 -0.571428,0.571428 -0.17047,0.219175 -0.258102,0.495111 -0.428572,0.714286 -0.165379,0.212631 -0.392466,0.370096 -0.571428,0.571429 -0.202572,0.227893 -0.380953,0.47619 -0.571429,0.714285 C 39.952381,29.52381 39.750768,29.753408 39.571429,30 39.369459,30.277709 39.217445,30.591377 39,30.857143 c -0.213222,0.260605 -0.487785,0.465135 -0.714286,0.714286 -0.250178,0.275196 -0.47619,0.571428 -0.714285,0.857142 -0.238096,0.285715 -0.491136,0.55961 -0.714286,0.857143 -0.206032,0.274709 -0.353984,0.591377 -0.571429,0.857143 -0.213222,0.260605 -0.489033,0.464006 -0.714285,0.714286 C 35.367454,35.083781 35.202572,35.343535 35,35.571429 34.821038,35.772761 34.593951,35.930226 34.428571,36.142857 34.258102,36.362032 34.170469,36.637968 34,36.857143 c -0.16538,0.212631 -0.409804,0.355929 -0.571429,0.571428 -0.127775,0.170368 -0.172846,0.39084 -0.285714,0.571429 -0.25238,0.403809 -0.580363,0.755365 -0.857143,1.142857 -0.298676,0.418146 -0.572087,0.858131 -0.857143,1.285714 -0.09524,0.142858 -0.178458,0.294502 -0.285714,0.428572 -0.08414,0.105173 -0.201576,0.180541 -0.285714,0.285714 -0.259251,0.167025 -0.261973,0.492154 -0.428572,0.714286 -0.08081,0.107749 -0.204902,0.177965 -0.285714,0.285714 -0.06389,0.08518 -0.08379,0.197118 -0.142857,0.285714 -0.03736,0.05603 -0.105502,0.08682 -0.142857,0.142858 -0.118128,0.177192 -0.167586,0.394236 -0.285714,0.571428 -0.03736,0.05603 -0.105502,0.08682 -0.142858,0.142857 -0.05906,0.0886 -0.08379,0.197118 -0.142857,0.285715 -0.07471,0.112066 -0.211003,0.173647 -0.285714,0.285714 -0.05906,0.0886 -0.08379,0.197118 -0.142857,0.285714 -0.07471,0.112067 -0.225481,0.165247 -0.285714,0.285714 -0.0213,0.04259 0.0213,0.100266 0,0.142858 -0.297269,0.594537 0.0099,-0.15272 -0.285715,0.142857 -0.03367,0.03367 0.0213,0.100265 0,0.142857 -0.03012,0.06023 -0.11274,0.08262 -0.142857,0.142857 -0.0213,0.04259 0.03367,0.109185 0,0.142857 -0.03367,0.03367 -0.109185,-0.03367 -0.142857,0 -0.03367,0.03367 0.0213,0.100266 0,0.142857 -0.06023,0.120468 -0.22548,0.165247 -0.285714,0.285715 -0.0213,0.04259 0.03367,0.109185 0,0.142857 -0.03367,0.03367 -0.109186,-0.03367 -0.142857,0 -0.06734,0.06734 0.06734,0.21837 0,0.285714 -0.03367,0.03367 -0.109186,-0.03367 -0.142858,0 -0.03367,0.03367 0.0213,0.100265 0,0.142857 -0.03012,0.06023 -0.11274,0.08262 -0.142857,0.142857 -0.0213,0.04259 0.03367,0.109186 0,0.142857 -0.03367,0.03367 -0.109185,-0.03367 -0.142857,0 -0.03367,0.03367 0.03367,0.109186 0,0.142858 -0.03367,0.03367 -0.109185,-0.03367 -0.142857,0 -0.03367,0.03367 0.0213,0.100265 0,0.142857 -0.06023,0.120467 -0.22548,0.165246 -0.285714,0.285714 -0.0213,0.04259 0.03367,0.109185 0,0.142857 -0.03367,0.03367 -0.109186,-0.03367 -0.142857,0 -0.03367,0.03367 0.0213,0.100266 0,0.142857 -0.06023,0.120468 -0.225481,0.165247 -0.285715,0.285715 -0.0213,0.04259 0.03367,0.109185 0,0.142857 -0.03367,0.03367 -0.109185,-0.03367 -0.142857,0 -0.03367,0.03367 0.03367,0.109185 0,0.142857 -0.03367,0.03367 -0.109185,-0.03367 -0.142857,0 -0.03367,0.03367 0.03367,0.109185 0,0.142857 -0.03367,0.03367 -0.109185,-0.03367 -0.142857,0 -0.06734,0.06734 0.06734,0.218371 0,0.285714 -0.03367,0.03367 -0.109186,-0.03367 -0.142857,0 -0.03367,0.03367 0.03367,0.109186 0,0.142857 -0.03367,0.03367 -0.109186,-0.03367 -0.142857,0 -0.03367,0.03367 0.0213,0.100266 0,0.142858 -0.03012,0.06023 -0.112741,0.08262 -0.142858,0.142857 -0.0213,0.04259 0.03367,0.109185 0,0.142857 -0.03367,0.03367 -0.109185,-0.03367 -0.142857,0 -0.03367,0.03367 0.03367,0.109185 0,0.142857 -0.03367,0.03367 -0.109185,-0.03367 -0.142857,0 -0.295576,0.295577 0.45168,-0.01155 -0.142857,0.285714 -0.04259,0.0213 -0.109185,-0.03367 -0.142857,0 -0.06734,0.06734 0.06734,0.218371 0,0.285715 -0.03367,0.03367 -0.109186,-0.03367 -0.142857,0 -0.03367,0.03367 0.03367,0.109185 0,0.142857 -0.03367,0.03367 -0.109186,-0.03367 -0.142857,0 -0.03367,0.03367 0.03367,0.109185 0,0.142857 -0.03367,0.03367 -0.109186,-0.03367 -0.142858,0 -0.03367,0.03367 0.0213,0.100265 0,0.142857 -0.03012,0.06023 -0.11274,0.08262 -0.142857,0.142857 -0.0213,0.04259 0.03367,0.109186 0,0.142857 -0.03367,0.03367 -0.142857,0.04762 -0.142857,0 0,-0.04762 0.109186,0.03367 0.142857,0 0.03367,-0.03367 -0.03367,-0.109185 0,-0.142857 0.03367,-0.03367 0.109186,0.03367 0.142857,0 0.03367,-0.03367 -0.02641,-0.103236 0,-0.142857 0.722014,-1.08302 -0.05992,0.405555 0.428572,-0.571429"
       id="path3823"
       inkscape:connector-curvature="0" />
    <path
       style="fill:none;stroke:#000000;stroke-width:1px;stroke-linecap:butt;stroke-linejoin:miter;stroke-opacity:1"
       d="m 2.8571429,39.714286 41.7142861,5"
       id="path3825"
       inkscape:connector-curvature="0" />
  </g>
</svg>
